<svg version="1" xmlns="http://www.w3.org/2000/svg" width="341.333" height="341.333" viewBox="0 0 256.000000 256.000000"><path d="M138.7 27.7c-.2.1-5.2.4-11 .5-5.9.2-10.7.6-10.7 1s-2.4.6-5.2.4c-5.6-.3-8.8.2-8.8 1.3 0 .4.9.7 2 .8 1.1.1 1.8-.2 1.5-.7-.3-.6.1-.7 1.1-.3 1.5.5 1.5.7-.2 1.6-1 .6-3.5.9-5.6.9-2.1-.1-3.8.2-3.8.7 0 .5.8.7 1.9.4 1-.3 2.2 0 2.5.6.5.8-1.5 1.1-6.1 1.2-3.7.1-8.1.2-9.8.4-1.6.2-5.1.4-7.7.6-9.2.5-3.6 1.3 9.7 1.4 7.4.1 13.7.4 14.1.8.4.4-.7.7-2.5.7-2.4 0-3.2.4-2.8 1.4.7 1.8-1.1 3.6-2.9 2.9-.8-.3-1.4-.1-1.4.5s-1.6.9-3.5.8c-1.9-.2-3.2 0-3 .4.2.4 1.9.7 3.6.8 2.8.1 6.5 2 4.6 2.3-1.1.2-2.6.6-3.4.9-.5.2-1.5.4-2.3.4-.8.1-1.4.8-1.2 1.6.3 1.1 0 1.1-1.1.1-1.2-.9-1.6-.9-2.1.1s-.7 1-1.2.1c-.4-1-.9-.9-2.1.2-1 1.1-1.9 1.3-2.7.6-.7-.6-1.7-.6-2.6-.1-1.1.7-1.2 1-.2 1 .7 0 1.1.4.7 1-.4.6-1.5.6-3 0-1.4-.5-2.5-.6-2.5-.1 0 1.2 2 1.8 5.3 1.6 1.5-.1 2.7.2 2.7.6 0 .5.7.5 1.7.2 1-.4 1.4-.2 1 .4-.4.6.3.9 1.8.8 1.3-.2 2.6.3 2.9 1.1.7 1.8 2.6 1.8 2.6.1 0-.8.7-1.4 1.5-1.4 1.1 0 1.2.3.3 1.4-1.7 2.1-4.9 3.6-4.6 2.2.2-.6-.4-1.3-1.3-1.4-1-.2-1.6.4-1.5 1.4.1 1.2-.6 1.5-2.6 1.3-2.1-.3-2.7 0-2.3 1.1.5 1-.6 1.4-4.7 1.4-9.5.1-10.8.3-10.8 1.4 0 .5.4.8.9.5.5-.4 1.2 0 1.4.6.4 1 .6 1 .6 0 .1-.6.9-1.2 1.9-1.2 1.4 0 1.5.2.2 1s-1.2 1 .3 1c.9 0 1.7-.5 1.7-1.1 0-.6.7-.3 1.6.5 2 2.1 2.5 2 1.8-.2-.5-1.6-.5-1.6.6.1.6.9 1.6 1.4 2.2 1.1.6-.4.9-.1.6.6-.2.8-2.4 1.5-4.9 1.7-8.4.7-16.4 1.1-23.3 1.2-10.9.2-7.3 1 7.3 1.7 7.4.3 14.1.8 15 .9.9.2 2.1.4 2.6.5 2.6.2-2.4 1.8-5.2 1.6-1.8-.1-2.9.2-2.6.8.4.5-.3.7-1.5.4-1.2-.4-2.4-.3-2.7.2-.3.4 1.8.7 4.6.6 2.7-.2 6.1.3 7.4 1 1.9 1 2.6.9 4-.5 1-.9 1.5-1 1.1-.4-.4.8-.2 1.3.6 1.3 1 0 .9.3-.2.9-.8.6-1.8.7-2.3.4-.4-.3-.7.3-.5 1.2.2 1-.6 2.1-1.9 2.6-1.7.6-2.1.5-1.6-.7.3-.8 1.2-1.3 1.9-1 .8.3 1.1 0 .7-.9-.3-.8-1-1.2-1.6-.8-.6.3-.7.1-.3-.5.4-.7.1-1.2-.8-1.2s-1.6.6-1.6 1.2c0 .9-.4.8-1-.2-.8-1.2-1-1.2-1 .5s-.2 1.7-1 .5c-.7-1.1-1-1.1-1-.2 0 .7-.4 1.1-.9.7-.5-.3-1.2-.2-1.5.3-.5.8.8 1.2 4.7 1.3.9 0 1.7.2 1.7.3 0 .8-3.7 4.4-5 4.9-1.2.4-1.1.6.3.6 3.6.2.7 1.8-3.5 1.9-4.9.2-8.8.9-9.6 1.7-.3.2 1.3.2 3.5-.1 3.1-.4 4.2-.2 4.6 1 .4.9.1 1.5-.6 1.3-.7-.1-1.1.4-1 1 .2.7-.4 1.3-1.4 1.3-1.4 0-1.4-.2.2-2 1-1.1 1.4-2 .9-2-.5 0-1.5.9-2.2 2-.8 1.3-2.3 2-4.2 2-1.7 0-3 .3-3 .8 0 .4 2.2.7 5 .8 4.6.1 6.9.8 5.9 1.8-.3.3-3 .7-6.2.9-7.1.5-8.5 1.5-1.7 1.3 2.7-.1 5.5.1 6.1.5.6.3.1.7-1.2.7-1.3.1-3.3.3-4.4.6-1.1.2-2.3.5-2.7.5-.5.1-.8.6-.8 1.2 0 .8.5.8 1.5-.1 1.2-1 1.5-1 1.5.1s.2 1.1 1-.1c.9-1.3 1-1.3 1 0 0 1.2.2 1.2.9.1.5-.7 1.1-.9 1.4-.4.3.4 0 1.5-.6 2.3-.9 1.1-3.4 1.5-10 1.5-4.9 0-9.1.3-9.4.7-.2.5.5.8 1.7.8 1.4 0 1.9.4 1.4 1.2-.6 1-.4 1 .7 0 1.5-1.4 4.9-1.6 4.9-.2 0 .5-.6.7-1.4.4-.8-.3-1.6-.2-1.9.3-.3.5 2.7.8 6.6.8 4 0 7.7.3 8.3.8.6.4 2.3.3 3.7-.2 1.6-.6 2.9-.7 3.2-.1.3.5 1.3.7 2.3.3.9-.3.2.5-1.7 1.6-1.8 1.2-3.6 2-3.9 1.7-.3-.4 0-.6.7-.6s.9-.5.6-1.1c-.5-.7-1.4-.5-2.9.5-1.3.8-2.8 1.1-3.6.6-1.6-1-4.2-.1-3.4 1.2.3.5-.2.8-1.1.6-1-.2-1.9.3-2.1 1-.1.7 0 .8.3.2.2-.6 1.4 0 2.5 1.2 1.1 1.3 1.7 1.8 1.4 1.1-1.2-2.3 1.3-2.3 3.4-.1 1.6 1.7 1.9 1.8 1.5.5-.4-1-.2-1.7.4-1.7.6 0 1.1.8 1.1 1.7.1 1.2.6.8 1.6-1.2.8-1.7 1.2-2.3 1-1.4-1.1 4.2 4.1 6.1 7.1 2.5 1.8-2.1 1.8-2.1-.4-.3-2.3 2-4.5.5-2.3-1.6 1-.9 1.1-.9.5.2-.5.9-.4 1.2.2.8.6-.4 1.3-1.6 1.6-2.7.3-1.1.1-1.8-.3-1.5-.5.3-1.2 0-1.6-.6-.4-.8-.3-.9.4-.5s1.2.3 1.2-.2c0-.6 1-.6 2.4.1 2.1 1 2.2 1.3.8 2.3-1.2.9-1.1 1.1.9.9 1.3-.1 2.9 0 3.4.4.6.3 2.8.7 5 .8 9.6.4 10.6.6 10.1 1.9-.3.7 0 1.5.7 1.7 1.1.3-9.1 1-13.5.9-1 0-2 .3-2.3.7-.2.5 2 .8 5 .7 3-.1 5.5.2 5.5.7 0 .4.9.3 2-.3 1.2-.6 2-.7 2-.1 0 .5 1 .7 2.2.3 1.6-.4 1.9-.2 1.3.9-.8 1.2-.6 1.2.8 0 1.4-1.1 1.7-1.1 1.7 0s.2 1.1 1-.1c.8-1.3 1-1.2 1 .4 0 2 0 2 1.5 0 1-1.2 1.4-1.4 1.3-.4-.2 1.1.8 1.4 3.9 1.4 2.3 0 4 .3 3.7.7-.2.5-2.2.7-4.4.5-2.2-.2-4 .1-4 .6s.6.8 1.3.7c2.5-.3 4.7.1 4.7 1 0 .4-1.1.6-2.5.3-1.5-.2-2.5 0-2.5.7 0 .6-.5 1.1-1.1 1.1-.5 0-.8-.4-.5-.8.3-.5-1.3-.9-3.4-.8-2.2 0-4 .5-4 1 0 .4.7.6 1.5.2.8-.3 1.5-.1 1.5.4 0 1.5-2.6 1.2-3.9-.4-.7-.8-2.2-1.1-3.8-.8-1.9.4-2.4.2-1.8-.8.6-.9.4-1.1-.4-.6-.7.5-1 1.1-.7 1.4.8.7-1.4 3.2-2.8 3.2-.8 0-.7-.3.1-.8 2-1.3 0-3-4.1-3.4-2.2-.2-4.1-.9-4.4-1.6-.2-.7.2-1 1.2-.6 1.1.4 1.6.1 1.6-1 0-1.4-3.9-2.3-7.4-1.7-.5.1-.4-.5.4-1.4 1-1.2 1.6-1.3 2.7-.4 2 1.7 2.8.3.9-1.7-1.5-1.4-1.9-1.5-3.4-.1-2.5 2.1-4.4 2.6-6.7 1.4l-2-1 2 2.4c1.1 1.3 1.3 1.9.5 1.3-1.7-1.2-8.8-1.2-10.7-.1-.7.5-1.3 1.3-1.3 2 0 .6.7.2 1.5-.9 1.1-1.5 1.5-1.6 1.6-.4.1.8.1 1.8 0 2.2 0 .4.6.5 1.4.2.8-.4 2.7.2 4.3 1.2 2.4 1.5 2.5 1.5 1.3.1-.7-.9-.9-1.7-.5-1.7.5 0 1.5.9 2.1 1.9 1.1 1.7 1 1.9-.7 1.6-1.1-.2-2 0-2 .5s-.7.7-1.5.4c-.8-.4-1.2-1.1-.9-1.8.3-.6-.1-.3-.9.6-1.6 2.1-3.2 2.4-2.1.5.6-.9.4-.9-.7-.1-.8.6-2.6 1-4.1.9-1.5-.1-2.5.2-2.2.7.3.4 2.3.8 4.5.8 2.4 0 3.8.4 3.4 1-.3.5-.1 1 .4 1 .6 0 1.1-.4 1.1-1 0-1 3.5-.8 4.6.3.4.3-.3.5-1.5.2-2.5-.5-2.9 1.2-.3 1.8 1.3.4 1.3.5-.4.6-2.4.1-4.8 2.4-3.7 3.5 1.3 1.3 1.1 3.6-.3 3.6-.8 0-1.4.5-1.4 1 0 .6 1.3.8 2.9.5 1.7-.3 3.3-.1 3.6.5.4.6-2.4 1-7.6 1-10.4 0-9.8.8 1.1 1.5 4.7.3 8.9 1 9.4 1.5.7.7.6 1-.2 1-.7 0-1.2.4-1.2.9 0 .6.9.8 2 .6 1.1-.2 2.3.1 2.6.7.4.6.2.8-.4.4-.6-.3-1.3-.3-1.6.2-.6.9-5.3 1.4-16.3 1.6-4.6 0-8.3.3-8.3.7 0 .7 1.6.8 8.3.9 3 0 4.7.5 4.7 1.3 0 .9.3.8.9-.1 1-1.6.9-1.6 4.4-.3 1.5.6 2.7.7 2.7.3 0-.4 1.3-.7 2.9-.7 1.6 0 2.7.3 2.4.7-.2.5-1.5.8-2.9.8-1.3 0-2.4.5-2.4 1.1 0 .5-.4.8-.9.5-.5-.3-1.2.1-1.5 1-.4 1.1-.2 1.5.6 1.1.7-.2 2.2-.1 3.3.4 1.8.7 1.8.8-.5.9-1.4.1-3.8.3-5.5.5-1.6.1-4.3.3-5.9.4-5.5.2-1.8 1.2 5.4 1.5 5.5.2 7.4.6 8.2 1.9.8 1.5 1.2 1.5 3.1.4 2.5-1.6 4.7-1.6 4.7-.2-.1.5-1.1.8-2.2.7-1.9-.3-2-.2-.9 1.1.6.9 2.6 1.5 4.4 1.5 7.2-.1 7.2 0 5.2 2.2-1 1.1-2.2 1.7-2.6 1.4-.5-.3-.9.1-.9.8 0 .9-.3.9-.8.2-.8-1.2-4.2-1.5-4.2-.3 0 .9-2 .7-3.7-.4-.7-.5-1 0-.6 1.5l.4 2.3-1.3-2.1c-1.2-2-1.4-2-2.8-.6-1.3 1.4-1.2 1.5.2 1 1-.4 1.9-.1 2.2.7.3 1-.7 1.8-3.4 2.6-2.2.7-3.8 1.5-3.5 1.8.4.7-3.9 1.3-10.2 1.5-5.6.2-3.6 2.2 2.3 2.4 3.1.1 6.1.5 6.8 1 .6.5 1.9.8 2.9.7.9-.2 1.5.1 1.1.6-.3.5-.9.7-1.4.4-.5-.3-1.1-.1-1.4.3-.3.5-1.8.9-3.3.8-1.9-.1-2.7-.6-2.5-1.6.2-.8 0-1.1-.4-.7-.4.4-.9 1.4-1 2.2-.2 1.1.9 1.5 4.2 1.5 2.9 0 4.4.4 4.4 1.3 0 1.1-2.4 1.7-8.1 2-.9.1-1.5.7-1.2 1.4.3.7.9 1 1.4.7 1.3-.7 7.9 1.8 7.3 2.8-.3.4 0 .8.7.8 2.4 0-1 2.6-3.7 2.8-4.2.3-4.2 1.2-.1 1.2 2.1 0 3.7.5 3.7 1.1 0 .6-.7.8-1.6.5-.8-.3-1.2-.2-.9.4.7 1.1 3.3.9 5.2-.3.9-.5 1.1-.3.7.6-.4 1 .2 1.4 2 1.2 1.3-.2 2.7.2 2.9.8.3.8-1.4 1.2-5.4 1.2-3.3 0-5.9.4-5.9.8 0 .5-.9.5-2 .2-1.2-.4-2.8-.1-3.7.7-.9.7-1.4.8-1 .2.7-1.3-4.1-1.3-6.1-.1-.5.4-1.3.1-1.5-.5-.4-1-.6-1-.6 0-.1.7-.6 1-1.3.6-.6-.4-.8-.3-.4.4.3.6 1.5.9 2.6.7 1.1-.2 2.2.1 2.6.7.4.6 1 .5 1.5-.3.6-.9 1.2-1 1.6-.4 1.2 1.6 3.5 1.7 4.4.3.7-1.1.9-1 .9.1 0 .9.8 1.1 2.4.7 1.7-.4 2.6-.1 3 1 1 2.6.6 3-.9 1-1.4-1.9-1.5-1.9-1.5.8 0 1.5.4 2.5.9 2.1.5-.3 1.2-.1 1.6.4.3.6 1.2.8 2 .4.8-.3 1.5 0 1.5.5 0 .6-.9.9-2 .7-1.1-.2-2 .1-2 .7 0 .7-.5.6-1.4-.1-1-.8-1.6-.9-2.1-.1-.9 1.4-2.8 1.3-1.9-.3.6-1 .4-1-.7 0-1.6 1.6-3.3 1.7-2.3.1.4-.7.3-.8-.5-.4-2.2 1.4 0 2.6 3.9 2.2 2.2-.2 4 0 4 .5 0 .6.9.5 2.1-.2 1.6-.8 2.3-.8 2.9 0 .4.7 1.1 1.1 1.6 1 2.7-.5 7.4.2 6.9 1.1-.3.5-1.9.8-3.5.6-2.1-.2-3 .1-3 1.1 0 .8.5 1.1 1.2.7.6-.4.8-.3.5.3-.4.6-2.3.9-4.2.7-1.9-.1-3.5.1-3.5.5 0 .5 2 .7 4.5.6 2.4-.1 4.2.1 4 .5-.2.4.7.5 2 .2 1.4-.2 2.2-.9 1.8-1.5-.3-.6-.1-.7.6-.3.6.4.9 1.2.6 1.7-.4.5.4.9 1.7 1 2.3.1 2.3.1-.2.8-1.4.4-3.6.6-4.8.5-1.3-.1-2.1 0-1.8.3 1.3 1.3 12.7 1.1 14-.3.8-.7 1.5-1.1 1.7-.9.9.9 9.9 1.3 10.4.4.4-.5 1.1-.9 1.6-.9.6 0 .8.4.5.9-.7 1 2 .9 3-.2.4-.4 1.6 0 2.6 1 1.1.9 1.8 1.1 1.8.5 0-.7.8-1.2 1.8-1.2s2.4-.6 3.1-1.3c1-1 1.4-.9 2.2.5 1.4 2.5 3 2.2 7.6-1.1 2.2-1.6 5-3.2 6.3-3.6 3-1 5.1-3 4.2-4-.4-.5-.2-.5.5-.1s3.4-.5 6-1.9 5.3-2.5 5.9-2.5c1.8 0 15.4-13.6 15.4-15.3 0-.9-.7-2-1.6-2.5-1.3-.7-.5-1.9 4.3-6.8 5.6-5.8 5.9-6 9.8-5.4 3.8.6 3.7.9-.5 2.3-.8.3.4.6 2.8.6 3.6.1 5.1-.5 8.8-3.5 2.4-2 4.4-3.4 4.4-3 0 .8 2.7-1.5 10-8.8 3.3-3.2 5.8-6.1 5.5-6.4-.2-.3-1.1.1-1.9.7-.8.7-2 1-2.7.6-1.7-1.1.9-2.4 4.1-2 2.1.3 3.1-.2 4-2.1.8-1.3 1.7-2.4 2.2-2.4.4 0 .8-.7.8-1.5s.4-1.5.9-1.5c.4 0 1.9-2 3.2-4.5 1.3-2.5 2.8-4.5 3.2-4.5.5 0 .5-.5.2-1-.3-.6-.1-1 .4-1 1 0 9.1-16.1 9.1-18 0-.5-1-1.1-2.2-1.3-1.5-.3-1.3-.4.7-.3 2.2.1 3.3-.6 4.4-2.5 2.1-3.7.8-6.3-2.7-5.4-5.3 1.4-6 1.3-6.6-.2-.4-.9-.1-2.2.6-3 1-1.3 1.3-1.3 1.8.3.4.9 1.4 1.8 2.3 2 1 .1 1.5-.2 1.1-.7-.3-.5-1.1-.7-1.7-.3-.7.3-.3-.2.8-1.2 1.5-1.3 1.6-1.5.3-1.1-.9.3-1.9 0-2.2-.9-.3-.8-.2-1.2.4-.9 1.2.8 5.4-8.5 4.3-9.6-.5-.5-2.4-.5-4.3.1-3.4.9-3.4.8-1.2-.7 1.2-.8 2.2-2 2.2-2.5s1-1.8 2.1-2.7c1.6-1.3 2-2.3 1.4-4-.4-1.4-1.2-2-2.1-1.7-1.7.7-1.8-1.5-.1-3.3 1-1.1.8-1.1-1-.2-3.3 1.7-3.6 1.3-1.3-1.7 1.9-2.4 2-2.7.5-3-1.2-.3-1.5-1-1.1-2.8.4-1.6.1-3-.8-3.9-.8-.9-1.3-2.6-1-4 .3-2-.1-2.7-2.1-3.5-1.4-.5-2.6-1.5-2.6-2.2-.1-.7-.3-2.8-.5-4.7-.3-3.7-2.1-5.6-4-4-.8.7-1.5.6-2-.2-.4-.7-.3-.9.3-.6.6.4 1.3-.3 1.6-1.5.5-1.6-.3-3.1-2.8-5.5-2.3-2.2-3.2-3.9-2.8-5 .5-1.2.2-1.5-.9-1-1 .3-1.9 0-2.2-.9-.3-.8-1.2-1.4-2.1-1.4-.8 0-1.5-.5-1.5-1 0-.6-1.2-1.6-2.7-2.3-1.6-.6-5-3.3-7.8-6-3.1-3-5.7-4.6-6.7-4.3-1 .2-1.8 0-1.8-.6 0-.5-.4-.6-1-.3-.5.3-1 .1-1-.6s-.9-.5-2.6.6c-1.5.9-2.4 1.3-2.1.8.3-.5-.5-.9-1.8-.9-1.4 0-2.1.5-1.8 1.3.3.7.8 1.2 1.1 1.1 2.4-.3 5.2.4 5.2 1.2 0 .5-.8.7-1.7.4-1.4-.5-1.5-.4-.4.4.8.6 1.9.8 2.6.6.6-.3 1.7.7 2.5 2.1.7 1.4 1.5 2.3 1.8 2 .3-.2 0-1-.6-1.7-.7-.9-.6-1.9.5-3.3 1.3-1.6 1.5-1.7 1-.3-1 2.8.1 4.4 3.1 4.6 6.6.6 8.7 1.6 5.2 2.5-1.1.3-2.2.1-2.5-.4-.3-.4-1.5.1-2.6 1.2-1.1 1.1-2.5 1.7-3.1 1.3-.8-.5-.5-1 .8-1.5 1.6-.6 1.5-.8-.7-.8-1.5-.1-2.9-.8-3.3-1.6-.3-.8-1.1-1.5-1.8-1.5-.9 0-.9.3.2 1 .8.5 1.1 1.2.7 1.6-.3.4-1.5.1-2.4-.7-1.6-1.3-1.7-1.2-.4.3 1.5 2.1.2 2.4-1.8.5-1.1-.9-1.2-.9-.7 0s-.2 1.2-2.4.9c-1.7-.2-3.3.1-3.6.6-.3.5-1.5.1-2.7-.9-1.1-1-1.7-1.2-1.3-.6.7 1.2-.4 1.7-3.1 1.4-.6-.1-1.4.2-1.7.7-.3.5.8.8 2.5.6 2.1-.3 2.9 0 2.6.9-.2.6-.9 1.2-1.4 1.2-.6 0-1.4.3-1.8.7-.4.3.1.5 1 .4 1-.1 2.3-1 3-1.9.7-.9 1.5-1.4 1.8-1 .4.3.2 1.2-.4 1.9-.7.8-.7 1.4.1 1.9 1.9 1.2 1 2.2-1.6 1.9-1.4-.1-2.3.1-1.9.4.4.4 2.9.7 5.6.8 2.8.1 4.8-.1 4.4-.4-.3-.3.5-1.7 1.7-3 2.1-2.3 2.2-2.5.3-1.8-2 .8-4.3 1.4-5.8 1.5-.5.1-.5.7-.1 1.3.5.9.3.9-.9-.1-1.8-1.4-1.3-3.6.6-2.4.7.4.6 0-.2-1-1-1.3-1.1-1.7-.1-1.7.7 0 1.9.8 2.6 1.7 1.3 1.7 1.4 1.7.8 0-.4-1-.1-1.7.6-1.7.6 0 .9.4.6.9-.3.5.9.8 2.7.7 2-.2 3.1-.7 2.9-1.5-.1-.7.5-1.1 1.5-.9 1 .2 1.7.9 1.6 1.5-.3 1.5 4 1 5.3-.6.9-1.1 1.2-1.2 1.9-.1.5.9.4 1.1-.3.6-.7-.4-1.2-.2-1.2.3 0 1.5 1.3 1.4 2.9-.2.8-.6 1.1-.7.8-.2-.3.6.3 1.1 1.4 1.1 1 0 1.9-.5 1.9-1.1 0-.5.4-.4.9.3.4.8 1.1 1.3 1.5 1.3 1.8-.3 2.6 0 2.6.8 0 .5-1 .7-2.2.3-1.2-.3-1.9-.1-1.5.5.3.5 0 1-.8 1s-1.2-.5-.8-1c.3-.5-.3-.7-1.3-.5-1.1.2-1.8 1.1-1.8 2 .1 1.2-.5 1.5-2.2 1.2-1.8-.3-2.2 0-1.9 1.3.2 1.5-.5 1.8-4.6 1.9-3.1 0-4.8-.3-4.6-1 .2-.6 1.3-1 2.5-.8 1.1.2 2.3-.1 2.6-.7.4-.6-.5-.8-2.1-.7-3.2.4-5.5 3.2-3.5 4.5 1.2.7-5.9 1.1-21 1.3-2.7 0-4.8.3-4.8.7 0 .4.6.8 1.3.8.6 0 2.1.4 3.2.8 1.4.5 1.6.4.7-.3-1-.7-.5-.9 1.6-.8 1.7.1 2.8.5 2.4 1-.3.5.1.6.9.1.7-.5 3.2-.9 5.5-.9 3.5-.1 4.1.2 3.8 1.7-.2 1.3.1 1.7 1.2 1.3.9-.3 1.2-.2.9.4-.4.6-1.4.9-2.2.8-.9-.2-1.8.3-2.1 1.1-.3.8 0 1.1.6.7.6-.3 1.6.2 2.2 1.1 1.1 1.7 1.1 1.7.6 0-.3-.9-.2-1.7.2-1.8.4 0 1.5-.2 2.5-.4.9-.2 1.5 0 1.2.5-.6 1 1.4 1.7 4.6 1.5 1.5-.1 2.6.3 2.6 1.1 0 1.1-.3 1.1-1.6.1-1.2-1-1.4-.9-.9.4.5 1.4 0 1.6-3.3 1.4-2.4-.2-3.9.1-3.9.9 0 .6-.5.4-1-.4s-1-1-1-.4c0 1.4-3.2 1.3-4.2-.1-.5-.7-.8-.6-.8.1 0 .6-1.9 1-4.4.9-2.5-.1-5 .1-5.6.5-1 .6 3.8 1.1 14.7 1.4 2.4 0 4.3.4 4.3.8s.6.5 1.3.2c.7-.2 2.4 0 3.8.5 2.3.9 2.2 1-1.1 1.1-3.2.2-3.3.3-1 1 2.5.8 2.5.8.2.9-1.3.1-2.1.5-1.8 1 .3.5-.2.8-1.1.7-1 0-1.8.5-1.9 1.1-.1.7-.2 1.7-.3 2.2 0 .5-1.2.8-2.5.7-1.9-.1-2.3-.6-2-2.2.4-2.1-2.1-4.2-3.4-2.9-.3.3 0 .5.6.5.7 0 1.2.4 1.2 1 0 1.7-5 .6-5.6-1.2-.3-1-1.1-1.8-1.9-1.8-.7 0-2.5-1.4-3.9-3.1-1.4-1.7-2.6-2.7-2.6-2.4 0 .4-1 .1-2.3-.7-3.4-2.3-12.9-3.4-19.2-2.4-1.1.2-2.8-.1-3.7-.5-1.1-.6-1.9-.5-2.4.3-.4.6-.3.8.4.4.6-.3 1.3-.2 1.7.3.3.6-.3.8-1.5.6-1.1-.2-2 .2-2 .8 0 .8-.3.8-.9-.1-.4-.8-1.1-1.3-1.5-1.3-.3.1-.7.1-.8 0-1.5-.6-5.6-.4-5.2.2.2.4 1.4.6 2.6.4 1.1-.3 1.8-.1 1.4.2-1.3 1.3-5.6 1-5.6-.4 0-.7-.7-1.3-1.5-1.3-.9 0-3.1-1.6-5.1-3.5-1.9-1.9-4.1-3.5-4.9-3.5-.8 0-1.5-.5-1.5-1.1 0-.5-.4-.7-1-.4-.5.3-1 .1-1-.4 0-.6-.9-1.1-2.1-1.1-1.1 0-1.7-.5-1.4-1 .4-.6 1.1-.8 1.6-.4.5.3.9.2.8-.3-.3-1.3 1.2-4.5 3.8-7.9 1.2-1.7 2-3.4 1.6-3.7-.3-.4-.1-.7.6-.7s3.1-2 5.3-4.5c2.2-2.4 4.5-4.2 4.9-3.9.5.3.9 0 .9-.5 0-.6.6-1.1 1.3-1.1 2 0 8.1-3.1 9-4.6.5-.8 2.8-1.3 6-1.3 2.9 0 7.3-.2 10-.5 2.6-.3 4.7-.2 4.7.4 0 .5 1 .7 2.2.5 1.2-.3 2.8.1 3.7.8.9.8 1.2.8.8.1-.4-.7.2-1.4 1.3-1.7 1.1-.3 2-.1 2 .5 0 .5.5.6 1 .3 1.5-.9 1.2.2-.6 1.9-.8.9-1.1 1.6-.6 1.6.5 0 1.5-.7 2.2-1.5 1.5-1.8 3.4-2 2.4-.3-.4.7.1.5 1.1-.4 1.1-1 1.7-1.9 1.4-2-4.6-2.9-7-3.6-11.7-3.4-2.8.2-5.2 0-5.2-.4 0-.7-2.7-.9-3.3-.3zm-35 15.7c-.2.6-1.1 1-2 .8-1-.2-1.5.2-1.2 1 .2.7-.7 2.2-2.2 3.2-2.3 1.7-2.6 1.7-2 .3.4-1.1.1-1.7-.8-1.7-.8 0-1.5-.4-1.5-.8s.9-.8 1.9-.8c1.1 0 1.7.4 1.4.9-.3.5 0 .8.8.5.8-.3 1.4-.9 1.5-1.4.2-2.4 1.7-4.2 3-3.7.8.3 1.3 1.1 1.1 1.7zM177 42c0 .5-.4 1-.9 1-.6 0-1.3-.5-1.6-1-.3-.6.1-1 .9-1 .9 0 1.6.4 1.6 1zm4.7 2.4c0 .8-.6 1.2-1.5.9-1.1-.5-1.1-.7 0-1.4.7-.5 1.3-.9 1.4-.9 0 0 .1.6.1 1.4zm-99.4 10c1.5 0 2.5.1 2.2.4-1.1 1.2-7.2.8-7.2-.5 0-.7.5-.9 1.1-.5.6.4 2.3.7 3.9.6zm89.8 12.3c1.3 1.6 1.2 1.7-.3.4-1-.7-1.8-1.5-1.8-1.7 0-.8.8-.3 2.1 1.3zm-72.3 1.8c2.8-.2 2.8.1.1 1.6-1.7.9-2.4.8-3.1-.2-.7-1.1-1.1-1.1-1.5-.2-.6 1.5-5.9 1.7-6.8.3-.6-1 .6-1.4 3.9-1 1.1.1 1.5-.3 1.2-.9-.5-.8 0-.8 1.6-.2 1.3.4 3.3.7 4.6.6zm106.9 3.1c-.3.3-1.2.4-1.9.1-.8-.3-.5-.6.6-.6 1.1-.1 1.7.2 1.3.5zM91.2 73.5c.9-.4 1.8 0 2.1.9.4 1.1 0 1.3-1.9 1-1.5-.3-2.3-.1-2 .5.3.5-.1.8-.9.7-1.6-.2-1.7-.9-.7-3.4.3-1 .7-1 1.2-.2.3.6 1.4.8 2.2.5zm-5.6 2c.3 1.7-1.2 2-2.1.5-.7-1.2.4-3.4 1.3-2.5.3.3.7 1.2.8 2zm53.7-.6c1.6.1 2.6.5 2.3 1-.3.4-1.7.7-3.1.6-1.4-.2-2.3.1-1.9.6.3.5 0 .9-.5.9-.6 0-1.1-.5-1.1-1.1 0-.5-.4-.7-1-.4-1.2.8-3.2-.3-2.6-1.4.3-.4 1.5-.7 2.8-.5 1.3.1 3.6.3 5.1.3zM106 77.3c1.3-.4 1.3-.3 0 .6-1.4 1-.7 1.6 1.3 1.2.5-.1.6.3.2.9-.5.8-1.1.8-1.9.1-.7-.6-1.5-.9-1.7-.6-.3.2-1-.5-1.7-1.6-1.2-1.8-1.1-1.9.5-1.1 1 .5 2.5.7 3.3.5zm10.7.2c-1.1.7-2.8 1.2-3.9 1-1.1-.3-1.8-.2-1.4.2.3.3 0 1.3-.6 2.2-.8 1-.4.9 1-.3 1.2-1.1 2.2-1.6 2.2-1.3 0 .4 1.1.2 2.5-.3s3.7-1.2 5.1-1.4c2.1-.4 2.3-.2 1.4.9-.6.8-1.8 1.1-2.6.8-.8-.3-1.4 0-1.4.6s.6 1.1 1.3 1.1c.8 0 .8.3-.2.9-.9.6-2.4.5-3.8-.2-1.8-.8-2.9-.8-4.3 0-1 .7-2.1.9-2.4.6-.9-.9-.7-4.3.2-4.4.4-.1 1.9-.2 3.5-.3 1.5-.2 3-.6 3.4-.9.3-.4.9-.7 1.2-.7.3 0-.2.7-1.2 1.5zm28.8 2.1c1.7.1 3.7.3 4.5.3 1.3.1 1.3.3 0 1-.8.6-1.7.8-2.1.5-.4-.2-1.1 0-1.4.6-.5.8-1.1.7-2.1-.1-1.1-.9-1.4-.8-1.4.6s-.3 1.5-1.4.5c-.8-.6-1.2-1.8-.9-2.6.3-.8.1-1.4-.5-1.4-1.1 0-1.1 1.8.1 3.7.5.7.4 1.3-.2 1.3-.6 0-1.5-.9-2.1-2-.8-1.6-1.5-1.8-3.5-1-1.6.6-2.7.6-3.1-.2-.4-.6-.3-.8.3-.5.6.4 1.3 0 1.7-.8.3-.8 1.2-1.2 2-.9.8.3 1.7.1 2.1-.5.4-.8 1.3-.8 2.8.1 1.2.6 3.6 1.3 5.2 1.4zm63.1-.9c-.9 1-6.6 1.1-6 .2.3-.5.9-.7 1.4-.4.5.3 1.1.1 1.5-.4.3-.6 1.2-.8 2.1-.4.8.3 1.3.8 1 1zm2.5.6c-1 .9-1.1.8-.5-.6.3-1 .9-1.5 1.2-1.2.3.3 0 1.1-.7 1.8zM94 80.1c0 .5-.4.8-.9.4-.5-.3-1.2-.1-1.6.5-.3.5.2 1 1.1 1 1 0 1.5.2 1.2.5-.7.8-8.8 1.4-8.8.6 0-1.1 4-3.2 5-2.6.6.4 1 .1 1-.4 0-.6.7-1.1 1.5-1.1s1.5.5 1.5 1.1zm3-.7c0 .3-.4.8-1 1.1-.5.3-1 .1-1-.4 0-.6.5-1.1 1-1.1.6 0 1 .2 1 .4zm33.5 3.6c-.3.5-1.2 1-1.8 1-.7 0-.6-.4.3-1 1.9-1.2 2.3-1.2 1.5 0zm23 0c-.3.5-1.2 1-1.8 1-.7 0-.6-.4.3-1 1.9-1.2 2.3-1.2 1.5 0zm-38 1.9c-.1.9.2 1.9.7 2.2.6.4.6.9-.1 1.3-.6.4-1.1.2-1.1-.5 0-.8-.4-.8-1.5.1-1.4 1.1-1.4 1-.6-1.2.5-1.4.8-2.8.5-3-.2-.3.2-.5 1-.5.7 0 1.3.7 1.1 1.6zm91.2-1.3c-.3.3-1.2.4-1.9.1-.8-.3-.5-.6.6-.6 1.1-.1 1.7.2 1.3.5zm-67.7 2c0 .2-.9.4-2.1.4-1.1 0-1.8-.4-1.4-1 .5-.8 3.5-.3 3.5.6zM103.6 87c-.4-.8.1-.6 1.1.6 1 1.1 3.1 2.1 4.8 2.2 1.6.1 3.4.7 4 1.3.7.7.5.8-.7.4-1-.4-1.8-.3-1.8.3s.6 1.2 1.2 1.4c.7.3-.5.5-2.6.6-2.1.1-4.5.7-5.2 1.3-.8.6-1.4.8-1.4.4s.7-1.3 1.6-2c1.5-1 1.3-1.5-1.9-4-2-1.5-3.4-3.2-3.1-3.7.3-.5 1.5-.1 2.7.9 1.4 1.3 1.8 1.4 1.3.3zm48.4-1.6c0 .2-.7.7-1.6 1-.8.3-1.2.2-.9-.4.6-1 2.5-1.4 2.5-.6zM108 88c0 .5-.5 1-1.1 1-.5 0-.7-.5-.4-1 .3-.6.8-1 1.1-1 .2 0 .4.4.4 1zm-17.3.6c-.3.3-1.2.4-1.9.1-.8-.3-.5-.6.6-.6 1.1-.1 1.7.2 1.3.5zm58.6.3c1 .1 1.6.5 1.3 1-.3.5-1.5.7-2.5.4-1.1-.3-2.8 0-3.8.6-1.4.8-1.5 1.1-.3 1.2 5.4.5 6.7.6 8.8.7 1.3.1 2 .6 1.7 1.2-.3.5.1 1 .9 1 .9 0 1.4.8 1.3 2-.1 2.3-1.7 2.8-1.7.6 0-1.1-1.1-1.4-4.7-1-2.7.3-5.3.6-5.9.8-.6.2-1-.6-1-1.8.1-1.7-.5-2.1-3.6-2.3-2.1-.1-3.8.2-3.8.7 0 .6-.9.1-2.1-1.1-2.9-2.9-3.5-1.7-.6 1.5 1.9 2 2.6 2.3 3.7 1.3 1-.9 1.1-.9.6 0-.4.8-.2 1.3.6 1.3 1 0 1 .2-.1.9-.9.6-1 1.1-.2 1.5.6.4 1.6.4 2.1.1.6-.3 1-.2 1 .4 0 .5 1.3.8 2.8.6 3.2-.4 6.3.9 4 1.7-2.6.8-10.3.3-10.3-.8 0-.6-.8-1.9-1.8-2.9-1.4-1.3-2.1-1.5-3-.6-.6.6-2.2 1.1-3.6 1-2.5-.1-2.5-.1.7-1.5 3.8-1.7 4.3-3.7.7-2.8-3 .7-3.2-.6-.5-3.1 1.3-1.2 2.4-1.5 3.2-.9.7.5 2.2.9 3.3.9 1.1 0 2.2.3 2.5.7.8 1.1 5.2-2.1 4.5-3.3-.4-.5.4-.7 1.7-.5 1.3.3 3.1.5 4.1.5zm-54 2.6c.6 1.5-1.8 1.4-3.3-.1-.6-.6-.3-1 .9-1.1 1.1-.1 2.2.4 2.4 1.2zm-16.1 2.3c-.7.2-1 .8-.7 1.2.3.5 1.2.7 2 .3.8-.3 1.5-.1 1.5.5 0 .5-1.1 1.2-2.5 1.4-1.3.3-2.4.2-2.3-.1.2-1.9-.3-3.1-1.3-3.1-.8 0-.9.4 0 1.3 1.3 1.7.4 2.8-1.7 2-1-.4-1.3-.2-.8.6.4.7 1.8 1.1 2.9.9 1.2-.1 2.8.1 3.5.5.6.5 1.2.4 1.2 0 0-.5.9-.9 2-.9 2.1 0 2.9 2.6.8 2.6-.7.1-3 .3-5 .6-2.2.3-4.7 0-6.2-.8L70 99.4l2-2.2c1.2-1.2 1.8-2.7 1.5-3.2-.3-.5 1-.9 3.2-.8 2.1.1 3.2.3 2.5.6zm88.1 1.8c-1.7 1.2-1.6 1.3.5.9 2.7-.5 2.1 1-.8 1.8-1.6.4-1.9 0-1.8-1.8.1-1.3.6-2.1 1-1.9.4.3.8 0 .8-.6s.5-.8 1.1-.5c.6.5.4 1.2-.8 2.1zm-4 .2c.4-.8.6-.7.6.4.1 1.3-.6 1.7-2.3 1.6-1.7-.2-2.2-.6-1.6-1.4.6-.6.9-1.3.7-1.5-.1-.2.3.2.9.9 1 1.1 1.3 1.1 1.7 0zm-61.3-.4c0 .3-.4.8-1 1.1-.5.3-1 .1-1-.4 0-.6.5-1.1 1-1.1.6 0 1 .2 1 .4zm14 .6c0 .5-1.5 1-3.4 1s-3.8-.5-4.1-1c-.4-.6 1-1 3.4-1 2.3 0 4.1.4 4.1 1zm-9 3c0 .4-1.3.6-3 .5-1.6-.1-3 .1-3 .5s1.7.7 3.7.8c5.2.2 6.4 1.9 1.9 2.7-5.5 1.1-5.1 2 1 2 7.6 0 4.8 2.2-3 2.4-3.7.1-3 1 1.1 1.3 1.8.1 3 .6 2.7 1-.3.4-1.1.5-1.8.2-.8-.3-1.7-.1-2 .5-.4.6-1.4.7-2.4.4-.9-.3-1.4-.3-1.1.1.4.4 2.4.9 4.5 1.2 5.1.6 5.6 1.4 1.1 1.5-2 .1-4.5.2-5.4.3-1.1 0-1.7-.6-1.7-1.6.1-1-.3-1.6-.9-1.5-.7.1-1.3-.8-1.5-2-.2-1.5-.8-2-1.9-1.6-1.3.5-1.5.2-1.1-1.5.4-1.2.2-2-.2-1.7-.5.3-.8-.3-.7-1.4.1-1.1.3-1.8.6-1.6.2.3 1.1-.4 2-1.4 2.3-2.6 11.1-3.5 11.1-1.1zm18-1c0 .5-1 1-2.2.9-2.2 0-2.2-.1-.3-.9 1.1-.5 2.1-.9 2.3-.9.1-.1.2.3.2.9zm-36.6 2.2c-.3.4-.9.8-1.5.8-.5 0-.9-.4-.9-.8 0-.5.7-.9 1.5-.9s1.2.4.9.9zm28.1-.2c.3.5.1 1-.4 1-.6 0-1.1-.5-1.1-1 0-.6.2-1 .4-1 .3 0 .8.4 1.1 1zm45.8 4.2c-.2.4-1 .5-1.8.1-.8-.3-1.5 0-1.5.5 0 .6-.9 1-2.1.9-1.9-.1-1.9-.3.8-2.5 1.5-1.3 2.3-2.2 1.7-1.9-.6.4-1.1-.1-1.1-.9 0-1.1.6-.9 2.2.8 1.3 1.3 2.1 2.6 1.8 3zm-7.3-3.8c0 .2-.8 1-1.7 1.7-1.6 1.3-1.7 1.2-.4-.4 1.3-1.6 2.1-2.1 2.1-1.3zm13 .2c0 .8-1.9 1.3-2.4.6-.3-.5.1-.9.9-.9s1.5.2 1.5.3zm-76 2.3c0 .4-.9.7-2 .7-2 0-2.5-.7-1.4-1.9.7-.7 3.4.2 3.4 1.2zm45 2c0 .5-.7 1.2-1.6 1.5-1.4.5-1.5.4-.4-.9 1.4-1.7 2-1.9 2-.6zM91.5 106c-.4.6-2.6 1-5.1 1-5 0-5.3 1.6-.3 1.8 1.7 0 3.5.4 3.8.9.3.4.5.7.3.7-.2-.1-1.9.2-3.8.6-2 .5-3.4.4-3.4-.2 0-.5-.4-.6-1-.3s-.7-.1-.4-.9c.4-1-.1-1.8-1-2.2-2.1-.8-3.5.4-1.7 1.5 1 .7.9 1-.3 1.4-.9.4-1.6.1-1.6-.6s-.7-.4-1.5.7c-1.3 1.8-4.1 1.4-2.9-.5.3-.5.9-.7 1.4-.4.4.3 1.3-.2 2-1s.9-1.5.4-1.6c-.5 0-.1-.3.8-.7 2.9-1.1 14.9-1.2 14.3-.2zm29.9.2c-.5.8-.2.9 1.2.4 1-.4 1.5-.4 1.1.1-.5.4-2.2.8-3.8.9-2.7.2-2.8 0-1.2-1.2 2.2-1.7 3.7-1.8 2.7-.2zm51.6-.2c0 .5-.5 1-1.1 1-.5 0-.7-.5-.4-1 .3-.6.8-1 1.1-1 .2 0 .4.4.4 1zm11.5 1.5c-3.2 1.4-4.1 1.3-3-.4.3-.6 1.8-1.1 3.3-1l2.7.1-3 1.3zM61 109c0 .4 1.6.4 3.5 0 2.8-.6 3.4-.5 2.6.4-.6.7-2.9 1.2-5.1 1.2-2.2-.1-4 .3-4 .8s-.3.6-.6.3c-.4-.4-.2-1.3.4-2 .7-.8.9-1.7.5-2.1-.4-.4 0-.4 1 0 .9.3 1.7 1 1.7 1.4zm10.6-.8c.4.6.3.8-.4.4-.5-.3-1.3 0-1.5.6-.3.8-.6.6-.6-.5-.1-1.9 1.4-2.3 2.5-.5zm94.7.4c.9.3 1.5 1 1.1 1.5-.3.6-1.3.8-2.1.5-1.1-.4-1.3-.2-.9.9.3.8.2 1.6-.2 1.6-.4.1-1.6.3-2.7.4-1.1.2-3.8.6-5.9.9-5.2.7-7.2-.8-4.9-3.8 1.3-1.7 2.8-2.1 7.7-2.3 3.4-.1 6.9 0 7.9.3zm-38.9 1.8c.3-.2.4-.1 0 .3-.9 1.3-8.3 1.3-9 .1-.5-.8-.2-.9.9-.5 1 .3 1.7.2 1.7-.3s1.2-.5 2.9 0c1.6.4 3.2.6 3.5.4zm5.4-.1c.9-.3 1.4-.3 1.1.1-.9 1-4.9 1.6-4.9.7 0-1.3 1.4-2.3 1.8-1.2.2.5 1.1.7 2 .4zM90.5 113c.6.1.1.5-1 .9-2.2.9-4.5.4-4.5-1 0-.5 1-.7 2.3-.5 1.2.3 2.7.5 3.2.6zm-39 1c.7 1.2-.2 1.2-3 0-1.9-.8-1.9-.9.2-.9 1.2-.1 2.5.3 2.8.9zm29.5 0c0 .5-.2 1-.4 1-.3 0-.8-.5-1.1-1-.3-.6-.1-1 .4-1 .6 0 1.1.4 1.1 1zm46.4-.4c2.2.8-.1 2.9-3.4 3.1-1.8.2-2.1 0-1-.7.8-.5 1.7-.7 2.1-.4.4.2 1 0 1.4-.5.3-.6-.3-.8-1.5-.6-1.1.2-2 0-2-.6 0-1 2.1-1.2 4.4-.3zm27 2.6c.7-1.2 6.6-.2 6.6 1.2 0 .6.5.4 1-.4.7-1.2 1.1-1.2 2-.2.5.6.7 1 .4.7-.4-.3-1.3 0-2 .6-.8.7-1.4.7-1.9 0-.4-.7-1.2-.7-2.5.1-1.5 1-2.7 1-5 .1-1.8-.7-3-.7-3-.2 0 .6-.4.8-.9.5-.5-.3-1.4.1-2.1.9-1 1.2-.8 1.3 1 1 1.3-.2 2.5-.7 2.8-1 .3-.2 1.1 0 1.7.5 1.4 1.1 4.2.9 6.4-.4.9-.6 1.2-.5.7.2-.3.5 0 1.2.6 1.5.7.2-.9.5-3.7.6-2.7.1-6.5.3-8.2.4-4.1.4-4.4-1.6-.7-4.9 2-1.9 2.9-2.2 4.4-1.4 1 .6 2.1.6 2.4.2zm-65.4.9c0 .6-.5.7-1.1.3-.7-.4-1-.1-.7.7.3.8 1.1 1.3 1.7 1.1.7-.1 1 .2.6.8-.4.6-1.2.7-1.8.3-2-1.4-5.2-.9-4.9.7.3 1.2.1 1.2-.9.3-.8-.8-1.8-.9-3-.3-1.2.7-2 .6-2.4 0-.4-.6-1-.8-1.5-.5-.4.3-.7-.3-.6-1.3.1-2.2 1.4-2.7 8.6-2.9 3.6-.2 6 .2 6 .8zm8 0c1.2.8.9 1-1.3.6-2.3-.4-2.5-.2-1.5 1.1.9 1 .9 1.3.1.9-.6-.4-1.3-.1-1.6.5-.2.7-.4.1-.4-1.5-.1-2.9 1.9-3.6 4.7-1.6zm7.1.7c-.7.2-1.8-.1-2.3-.6-.8-.8-.4-.9 1.3-.5 1.3.4 1.8.8 1 1.1zm8.6-1.2c-.3.3-1.2.4-1.9.1-.8-.3-.5-.6.6-.6 1.1-.1 1.7.2 1.3.5zm4.8 2.4c.4.7 1.3.7 2.6 0 1.1-.6 1.9-.7 1.9-.2 0 1.4-3.5 2.1-5.1 1.1-.7-.4-1.8-.5-2.3-.1-1.5.9-4.6 1-4.6.1 0-.4 1.2-1 2.8-1.2 1.5-.2 3-.5 3.4-.6.4 0 1 .4 1.3.9zm8.5-.4c0 .8-1.9 1.3-2.4.6-.3-.5.1-.9.9-.9s1.5.2 1.5.3zm-68.7 2.2c.9.2 1.7-.3 1.7-1 0-.8.5-.5 1.1.5.6 1 .8 2.1.5 2.4-.3.4-.6.1-.6-.7 0-1-.3-1-1.5 0-.9.7-1.5.8-1.5.2 0-1.1-1.8-1.1-3.8.2-1.1.7-1.1.4-.1-1.3.8-1.1 1.6-1.7 1.9-1.3.3.4 1.3.8 2.3 1zm50.6 1.7c1.3-.1 3.4.8 4.5 1.9l2.1 2.1-2.9.3c-5 .6-7.3-.5-7.3-3.4 0-1.4.2-2.2.6-1.7.3.6 1.7.9 3 .8zm-42.5 2c.3.8.1 1.5-.4 1.5-.6 0-1-.7-1-1.5s.2-1.5.4-1.5.6.7 1 1.5zm30.5-.1c.9 1.1.9 1.6 0 2.2-.8.4-.9.3-.5-.4s.1-1.2-.8-1.2-1.6-.5-1.6-1c0-1.4 1.6-1.2 2.9.4zm21.6-.4c.3.6-.1.7-.9.4-1.8-.7-2.1-1.4-.7-1.4.6 0 1.3.4 1.6 1zm88.2-.4c-.3.3-1.2.4-1.9.1-.8-.3-.5-.6.6-.6 1.1-.1 1.7.2 1.3.5zm-31.7 1.7c0-1.5 4.8-.3 5.4 1.3.3.8.1 1.4-.4 1.4-.6 0-.9.5-.7 1.1.3 1.6-6.1 2.3-7.8.9-1-.8-1.5-.8-2.1.1-.4.8-.3.9.4.5s1.2-.4 1.2.1c0 1-5.2 3.5-5.8 2.8-.3-.3 0-.5.7-.5s1-.4.6-.9c-.3-.5-.1-1.3.5-1.6.8-.5.7-1.2-.2-2.3-1.1-1.3-1-1.5.5-.9 1.1.4 2.4 0 3.5-1.2 1.2-1.2 2.1-1.5 3-.8.8.6 1.2.6 1.2 0zm7.5-.3c-.3.5-.1 1 .5 1s.8.5.4 1.1c-.4.8-.9.7-1.5-.2-.7-1.2-.3-2.9.7-2.9.3 0 .2.4-.1 1zm24.5.3c1.3-.4 1.3-.3.1.6-.8.5-2.2.6-3 .2-1.9-1-4.3-.3-3.6 1 .4.5 0 .6-.8.3s-1.7.1-2 .9c-.4 1 .3 1.2 2.4.9 1.6-.2 3.6.1 4.4.8.9.7 1.5.8 1.5.2 0-1.1 3.7-.4 4.5.9.3.4 0 1.1-.6 1.5-.8.4-.9.3-.5-.4s.1-1.2-.9-1.2c-1.2 0-1.5.5-1.1 1.6.5 1.4.4 1.5-.8.5-.7-.6-2.1-.9-3-.5-2.1.8-1 2.5 1.2 1.7.9-.3 1.4-.3 1.1.1-1.1 1.1-5.9 1.7-5.9.7 0-.6.9-1.6 2-2.4 1.8-1.3 1.9-1.5.5-2.1-1.1-.4-1.4-.2-.9.6.5.8.2.9-.9.5-1-.4-1.7-.1-1.7.6 0 .8-.3.7-.9-.2-.8-1.2-1.2-1.2-2.5-.2-2.3 1.9-2 .4.5-2.7 2.7-3.5 6-5.2 7.9-4.2.8.4 2.2.5 3 .3zm-42.5 4.7c.3.5-.1 1-1 1s-1.3-.5-1-1c.3-.6.8-1 1-1 .2 0 .7.4 1 1zm-103.8 1.7c0 .8-.4 1-1.2.3-.7-.5-1.6-.6-2-.2-.5.4-.5.2-.2-.4.9-1.5 3.4-1.3 3.4.3zm155.8-.7c-.3.5-1.2 1-1.8 1-.7 0-.6-.4.3-1 1.9-1.2 2.3-1.2 1.5 0zm-41.1 2.1c.3.3-.4.5-1.4.6-1.1.1-2-.2-2-.7 0-.8 2.5-.8 3.4.1zm23.8.3c.3-.3.5.3.5 1.3-.1 1.1.4 1.8 1.5 1.7 1-.1 1.5.2 1.2.7-.3.5 0 .9.5.9.6 0 1.1-.5 1.1-1.1 0-.8.4-.8 1.3-.2.6.6 2.9.9 5 .8 3-.2 3.5 0 2.6 1.1-.6.8-1.6 1.1-2.2.7-.6-.4-.8 0-.4 1.1.6 1.4.4 1.5-1.4.5-1.3-.7-1.9-.7-1.5-.1.3.6.2 1.3-.4 1.7-.5.3-1 .2-1-.3s-.7-.9-1.5-.9-1.1.5-.8 1c.4.6 0 .8-1 .4s-1.7-.2-1.7.4c0 .6.9.9 2 .6 1.1-.3 2-.1 2 .3 0 .5.9.7 1.9.5 1.1-.2 2.4.2 3 .9.8.9 0 1.3-3.2 1.5-2.3.2-5.1.4-6.1.5-2.1.1-3.6 2.6-1.6 2.6.6 0 .8-.4.5-1-.3-.6.1-.7.9-.4.9.3 1.6 1 1.6 1.6 0 .5-.4.6-1 .3-.5-.3-1-.1-1 .6 0 1-.3 1-1.2.1-1.4-1.4-3.2-1.6-2.4-.3.7 1.1-2.1.9-2.9-.2-.3-.4-.2-.5.2-.2.3.3 1.5-.2 2.5-1.2 2.2-2 2.4-4.8.2-3.9-1.2.5-1.4.1-.9-1.7.7-2.2.7-2.2-1-.2-1.3 1.5-1.5 1.6-1.1.3.6-1.9-1.3-2.9-4.3-2.1-1.3.3-2.1.1-2.1-.6s.4-.9 1-.6c.5.3.7 0 .5-.8-.8-1.8 3.4-7 5.1-6.3.7.3 1.6.1 2-.5.4-.7 1-.6 1.8 0 .7.6 1.5.8 1.8.5zm-39.5 2.5c0 1-.6 1.7-1.3 1.4-.7-.2-1.5 0-1.9.6-.3.6-1.1 1.1-1.6 1.1-.6 0 .2-1.1 1.7-2.5 3.2-3 3.3-3 3.1-.6zm4.3-1.5c0 .2-.8 1-1.7 1.7-1.6 1.3-1.7 1.2-.4-.4 1.3-1.6 2.1-2.1 2.1-1.3zm-20.4 4.5c-.3.5.6.8 2 .8s3 .5 3.5 1-1.4 1-4.9 1.1c-3.1.1-7.5.4-9.7.7-2.2.2-3.3.2-2.5-.2.8-.3 1.8-1.1 2.2-1.6.3-.6 2.3-1.2 4.4-1.3 2-.2 3.9-.6 4.2-.9.8-.8 1.4-.6.8.4zm73.9 1.3c-.4 2.1-.3 2.1.8.6.9-1.1 1.8-1.4 2.7-.8 1.2.8 1.2 1-.1 1.5-.9.3-1.6 1.2-1.7 2-.1.8-.3 2.2-.4 2.9-.1 1.1-.6 1.2-1.9.5-1.1-.6-2-.5-2.4.1-.3.5-1.1 1-1.7 1-.6 0-.8-.3-.5-.6.3-.4.2-1.5-.4-2.5-.7-1.3-.6-1.9.1-1.9.6 0 .8-.5.4-1.2-.4-.6-.3-.8.3-.5.6.4 1.8-.2 2.8-1.3 2.3-2.5 2.5-2.5 2 .2zm-115.4-.3c-.8.5-2 .7-2.8.4-2.1-.8-1.5-1.3 1.5-1.3 2 0 2.3.3 1.3.9zm13.9.5c0 .2-.7.7-1.6 1-.8.3-1.2.2-.9-.4.6-1 2.5-1.4 2.5-.6zm-7.5 1.6c.3.5.2 1-.4 1-.5 0-1.3-.5-1.6-1-.3-.6-.2-1 .4-1 .5 0 1.3.4 1.6 1zm63.5.9c0 .3-1 .6-2.3.6-1.3 0-2.4-.5-2.4-1.1 0-.6 1.1-.9 2.4-.6 1.3.2 2.3.7 2.3 1.1zm-96.9 1.8c1.3 1.6 1.2 1.7-.3.4-1-.7-1.8-1.5-1.8-1.7 0-.8.8-.3 2.1 1.3zm29.2-1c-1.3.2-3.3.2-4.5 0-1.3-.2-.3-.4 2.2-.4s3.5.2 2.3.4zm44.7.6c1.4.2 3.3 0 4.2-.5 1.3-.6 1.6-.5 1.2.5-.3.8-1.5 1.4-2.7 1.4-4.8.1-5.2.3-5.2 3.2 0 2.7.2 2.8 4.3 2.7 3.1-.1 4.6.3 5.2 1.4.6 1.1 1.9 1.5 4.2 1.3 7.2-.8 9.9-.8 11.1-.1 1.3.8 1.3.8-5 1.2-5.2.2-6.9 1.6-2.2 1.7 1.9.1 3.7.1 4.1 0 .5 0 .7.2.7.7-.3 1.9.2 2.9 1.6 2.9.8 0 1.5-.9 1.5-1.9 0-1 .5-1.8 1-1.8.6 0 1 .4 1 .9s.9.7 2 .4c1.2-.3 2 0 2 .6 0 .7-.4.9-1 .6-.5-.3-1.8-.1-2.7.4-1.5.9-1.4 1.1 1.2 1.2 1.7.1 3.8 0 4.8-.1 1.7-.1 1.7 0-.3 2-1.1 1.1-2.6 1.8-3.1 1.4-.8-.5-.8-.8 0-1.3.6-.4-.5-.7-2.4-.7-2.6 0-3.1.2-2 .9 1.4.7 1.2 1.1-.9 2.8-1.4 1.1-3.8 2.1-5.3 2.2-1.5.1-3.1.6-3.5 1.2-.5.6-.8.5-.8-.3 0-.9-.5-1-1.7-.4-1 .5-3.1.8-4.6.7-1.5-.1-3 .2-3.3.7-.3.5-.2.8.3.7.4-.1 3.1-.1 5.9 0 3.5.1 5.1.5 5.1 1.4 0 1-1.4 1.3-5.1 1.1-2.8-.1-5.6.2-6.3.8-.7.5-1.8.6-2.4.2-.8-.5-1-.2-.7.8.4 1 0 1.4-1.5 1.2-1.2-.1-2.2-.3-2.2-.4 0-.6-7.8-.4-8.2.2-.2.5-.1.8.4.7 2-.3 3.4.2 2.8 1-.3.6-1.4.8-2.5.6-1-.2-2.4.3-3.1 1.1-.6.8-1.7 1.4-2.3 1.4-.6 0-.4-.5.4-1.1 1.2-.8.8-1-1.5-.8-4.7.2-5.7 0-5-1.2.4-.6 1.3-.8 2.1-.5.8.3 1.4.1 1.4-.5s.6-.7 1.3-.3c.9.6.9.4-.1-.8-1-1.3-3-1.5-11.7-1-9.5.4-10.5.3-9.9-1.2.3-.9 1.3-1.6 2.1-1.6s1.1-.5.8-1c-.9-1.4-4.8-1.2-6.4.2-1.1 1-1.3 1-.7 0 .4-.7.1-1.2-.8-1.2s-1.5.5-1.4 1.1c.2.6-.5 1.3-1.4 1.4-1 .2-1.8-.1-1.8-.6s.6-.9 1.3-.9c.8 0 .8-.3-.2-.9-.8-.5-2.9-.7-4.8-.4-1.9.3-3.3.1-3.3-.4 0-.6-1.2-1-2.7-1-1.6 0-2.2.2-1.5.4.6.3 1 .9.6 1.4-.3.5-1.3.5-2.4-.1-1.2-.6-2.1-.7-2.5 0-.3.5-1.2.7-2 .4-.8-.4-1.2-1-.9-1.5.3-.5-.2-.9-1-.9-1.9 0-2.1-2.1-.4-3.8.7-.7 1-1.2.7-1.3-.2 0-1.5-.3-2.9-.5-2.4-.4-2.4-.4-.5 1 1.6 1.3 1.7 1.5.4 1.6-.9 0-2.1-1.1-2.7-2.5-.6-1.4-1.8-2.5-2.6-2.5s-1.8-.5-2.2-1.2c-.5-.7-.3-.8.6-.3.9.5 1.1.4.6-.3-.4-.7-1.4-1.2-2.2-1.2-.8 0-1.4-.5-1.4-1.1 0-.5.4-.8.8-.5.5.3 1.7-.9 2.7-2.6 1-1.7 1.3-2.8.8-2.5-.6.4-1.6 0-2.3-.8-1-1.2-.9-1.6.4-2.1 2.7-1 10.6-1 10.6.1 0 .5.4.4.9-.4.7-1.1 1.3-1 3.2.8 1.2 1.1 1.9 2.1 1.3 2.1-.5 0-.2.5.6 1 1.1.7.5.9-2.3.8-4.1-.1-5.7.6-3.2 1.5.8.4 1.5.2 1.5-.3 0-.6.9-.1 2.1 1.1 1.6 1.6 2.3 1.8 3.5.8.9-.7 1.4-.8 1.4-.1 0 .6.8.9 1.8.7.9-.1 2.7.2 3.9.6 1.3.5 3.3.4 4.5-.1 1.3-.5 2-.9 1.6-.9-.4-.1-.1-1.6.7-3.5.8-1.8 1.2-3.5 1-3.7-.2-.2 2.4-.2 5.7-.1 3.8.3 5.6.7 4.8 1.2-.8.5-1.8.7-2.2.4-.4-.3-2 .2-3.5 1.1-2.3 1.3-2.4 1.5-.5 1 1.3-.4 2.9-.1 3.7.5.8.6 2.4 1.1 3.7 1 4.1-.4 11.4.2 9.3.7-3.1.8-3.9 2.1-1.1 1.8 3.5-.4 3.3.2-.6 1.8l-3.3 1.4 3.8.4c3.2.4 4.1.1 6.7-2.8 1.7-1.8 3-3.7 3-4.3 0-1-3-1.4-8.2-1.1-3.8.2-3.5-.9 1-3.9 4.7-3.2 12.1-4 23.2-2.7zm-77 1.2c0 .7-3 1.3-3.4.7-.3-.4.4-.9 1.5-.9 1-.1 1.9 0 1.9.2zm-10.3 3c0 .8-.5 1.6-1.2 1.8-.6.3-1.1-.5-1.1-1.8s.5-2.1 1.1-1.8c.7.2 1.2 1 1.2 1.8zm89.3 1.7c0 .5-.7.8-1.5.8-1.7 0-1.8-.2-.9-2.5.5-1.3.8-1.4 1.5-.3.5.7.9 1.6.9 2zm27-2.1c1.2.9 1.2 1-.4.5-1.4-.5-1.7-.3-1.2 1.1.6 1.4.5 1.5-.5.6-.9-.9-1.8-.9-3.3-.2-1.8.9-1.8.8.3-1 2.7-2.4 3-2.5 5.1-1zm6.5 1.7c-.3.3-1.1 0-1.8-.7-.9-1-.8-1.1.6-.5 1 .3 1.5.9 1.2 1.2zm21.2-1.2c-.3.3-1.2.4-1.9.1-.8-.3-.5-.6.6-.6 1.1-.1 1.7.2 1.3.5zM68 151c0 .5-.7.7-1.5.4-.8-.4-1.2-1-.9-1.5.6-1.1 2.4-.2 2.4 1.1zm30.5-1c-.3.5-1.5 1-2.6 1-1 0-1.9-.5-1.9-1 0-.6 1.2-1 2.6-1 1.4 0 2.3.4 1.9 1zM87 154c0 .5-.7.7-1.5.4-.8-.4-1.5-.8-1.5-1 0-.2.7-.4 1.5-.4s1.5.4 1.5 1zm128 .1c0 .5-.4.7-1 .4-.5-.3-1-.1-1 .4 0 .6-.3 1-.7 1-2-.3-2.4.2-1.4 1.5.9 1 .8 1.5-.4 1.9-.8.4-1.2 1.3-.9 2.1.4 1.1 0 1.3-1.8.9-2.3-.5-2.3-.5-.3 1 1.8 1.5 1.9 1.6.2 1.7-1 0-1.6.4-1.2.9.3.6-.3 1.5-1.4 2.1-1.3.7-2.2.7-2.6 0-.3-.5.1-1 .9-1 .9 0 1.3-.6 1-1.5-.3-.8.6-2.6 2.2-4.2 1.6-1.5 2.7-3.2 2.6-3.7-.4-1.2 2.9-4.6 4.5-4.6.7 0 1.3.5 1.3 1.1zm-12.5 1.8c.3.5.1 1.2-.5 1.6-.5.3-1-.1-1-.9 0-1.8.6-2.1 1.5-.7zm-3.2 1.7c.4.4-.3 1.5-1.5 2.5-2.7 2.4-3.6 2.4-1.5.1 1-1 1.4-2.2 1-2.5-.3-.4-.2-.7.4-.7.5 0 1.3.3 1.6.6zm-15.9 6.2c.3.5-.1.9-.9.9s-1.2-.4-.9-.9c.3-.4.7-.8.9-.8.2 0 .6.4.9.8zm11.6.2c0 .5-.2 1-.4 1-.3 0-.8-.5-1.1-1-.3-.6-.1-1 .4-1 .6 0 1.1.4 1.1 1zm-18.7 4.3c-.5.8-.8.7-1.1-.1-.3-1-.7-1-2 0-1.5 1.2-1.5 1.1-.4-.4 1.4-1.8 4.7-1.3 3.5.5zm3.7-.9c0 .3-.4.8-1 1.1-.5.3-1 .1-1-.4 0-.6.5-1.1 1-1.1.6 0 1 .2 1 .4zm-93.9 4.5c.6-1 .9-1 .9-.2 0 .7.6 1 1.4.7.8-.3 1.6-.2 1.9.3.3.5-1.9.9-4.8.9-4.1.1-5.2-.2-4.8-1.2.3-.8.9-1.2 1.3-.9.5.3 1.2 0 1.7-.7.5-1 .9-.8 1.1.6.3 1.5.6 1.6 1.3.5zm94.9 0c0 .3-2.7.6-6 .5-3.3-.1-5.7.2-5.4.7.3.5.3.9 0 .9-1.6 0-1.4-2.1.3-2.8 2.4-.8 11.1-.3 11.1.7zm3 .1c0 .5-.2 1-.4 1-.3 0-.8-.5-1.1-1-.3-.6-.1-1 .4-1 .6 0 1.1.4 1.1 1zm-84.6 4.3c.3-.4.6 0 .6.7 0 .9.5.7 1.6-.6.8-1 1.2-1.3.8-.5-.5 1-.3 1.3.8.9.8-.4 1.5-.1 1.5.6 0 .8-1.8 1.3-4.6 1.5-2.5.1-4.7.4-5 .7-.4.4 11.6.8 14.9.5.8-.1.4.5-1 1.4-2.4 1.4-2.3 1.4 2.4 1 2.7-.2 5.2-.9 5.6-1.5.4-.6 1.4-.2 2.6 1.1 1 1.3 1.3 1.9.7 1.5-.9-.5-1.3 0-1.3 1.4 0 1.7.4 2 2.3 1.5 2.1-.6 2.1-.5.4.9-1.7 1.3-1.6 1.4 2.1 1.3 2.1-.1 4.7-.9 5.8-1.7 1.8-1.4 1.8-1.4.4.5-.8 1.1-2.1 2.6-2.7 3.3-1.7 1.8-1.6 2.7.5 4.3 1.5 1.3 1.6 1.2.4-.2-1-1.4-1-1.8.3-2.3.8-.3 1.5-1.2 1.5-1.9 0-.8.8-2.1 1.7-2.8 1-.8 1.4-.9 1-.2-.8 1.3 2.3 1.1 4.5-.3.7-.4.8-.3.4.4s-.1 1.2.9 1.2 1.4-.5.9-1.3c-.6-1-.4-1 .7 0 .7.7 2.1 1.3 3.2 1.3 1 0 1.5.4 1.2 1-.3.5-1.9.8-3.5.6-1.6-.2-2.7 0-2.5.4.3.5-.1 1-.7 1.3-.7.2-.1.4 1.4.3 1.4 0 2.4-.5 2-1-.3-.5 0-.6.7-.2.9.6.9 1.1.1 2.1-.7.8-.9 2-.5 2.7.4.7.1.6-.7-.3-1.5-1.8-4.8-2.1-4.5-.5.1.6-.4 1-1 .8-.7-.1-1.3.3-1.3.9 0 .6-.9.9-2 .6-1.1-.3-1.8-.1-1.4.4.4.8-2.5 1.4-4.8 1-.5 0-.8.5-.8 1.1 0 .9-.4.8-1.1-.2-.8-1.1-1-1.1-.7-.1.5 1.6 9.9 2.5 10.9 1 .4-.7.8-.6 1.1.3.6 1.4-.8 1.8-8.7 2.1-2.2.1-4.3.6-4.7 1.2-.5.6-.8.5-.8-.3s-.5-1-1.2-.6c-2.1 1.3-14.8 1.5-14.6.3.2-.6-.4-1.4-1.2-1.6-1.3-.4-1.3-.3 0 .6 1 .7 1.1 1.1.3 1.1-.7 0-1.6.1-2 .2-.3.2-.7-.4-.8-1.2-.2-1.2 1.1-1.5 6.9-1.6 10.6-.1 12.8-.5 12.3-2.5-.3-1.1 0-1.6.7-1.3 1.7.6 5-2.1 4.2-3.4-.4-.7-1.5-1.2-2.4-1.2-1.5 0-1.5.2-.2 1 1.2.8 1.1 1-.7 1.1-2.3.2-4.8.4-8 .9-1 .1-.2.6 1.7 1l3.5.7-4.5.4c-2.5.1-7.7.3-11.7.4-3.9 0-7.5.4-7.9.7-.9 1-6-1.7-7.6-4-.7-1-2.4-2.2-3.8-2.5-1.7-.4-2.6-1.3-2.6-2.7 0-1.1.5-2 1.1-2 1 0 5.2-4.2 4.7-4.8-1.2-1.4 3.5-3.9 6.1-3.3.5.1.6-.3.3-.8-.4-.5.4-1.7 1.6-2.5 1.2-.9 1.7-1.6 1-1.6-.6 0-1.2-.6-1.2-1.3.1-.6.9-.2 1.9 1 1 1.2 2.1 1.9 2.5 1.6zm76.1-2.3c-.9 1.4.8 1.2 2.4-.3 1.1-1 1.3-1 .7 0-.5.9 0 1.3 1.3 1.3 1.2 0 2.1.4 2.1.8 0 .5-1.4.8-3 .7-1.7-.1-3.3.2-3.6.7-.3.5-1.3.3-2.2-.4-1.2-1-1.4-1-.8-.1.4.7.2 1.3-.3 1.3-.6 0-1.1-.8-1.1-1.8 0-1.4-.2-1.5-.9-.2-.6.8-.8 1.7-.6 2 .2.3-1 .5-2.5.5-1.9 0-3.1-.6-3.4-1.8-.4-1.7 0-1.9 7.1-2.1 1.7-.1 3.5-.4 3.9-.9 1.1-1 1.6-.9.9.3zm14.5 1.4c0 .3-.4.8-1 1.1-.5.3-1 .1-1-.4 0-.6.5-1.1 1-1.1.6 0 1 .2 1 .4zm-71 1c0 .2-.7.7-1.6 1-.8.3-1.2.2-.9-.4.6-1 2.5-1.4 2.5-.6zm23.8 1.3c-.6.7-1.2 1.3-1.3 1.3-.2 0-.5-.6-.8-1.3-.3-.7.3-1.3 1.4-1.3 1.3 0 1.5.3.7 1.3zm49.1.5c.4-.6 1.1-.5 1.9.4 1.1 1.2 1 1.4-.3 1.4-1 0-1.4.5-1 1.2.4.7-.1.4-.9-.6-.9-1.1-1.6-2.5-1.5-3 0-.6.3-.5.6.3s.8.9 1.2.3zM84 180.5c-.7.8-1.6 1.5-2.1 1.5s-.1-.9.8-2 1.9-1.7 2.1-1.5c.3.3-.1 1.1-.8 2zm83.8.2c-1.6.2-2.8.8-2.8 1.3 0 .4-.9.6-2 .3-3.3-.9-1.1-2.3 3.3-2.2 3 .2 3.4.3 1.5.6zm22.2.7c0 .2-.7.7-1.6 1-.8.3-1.2.2-.9-.4.6-1 2.5-1.4 2.5-.6zm-116 3.1c0-.5.5-.4 1.1.2.6.6 1.8.9 2.7.6.9-.4 1.3-.1 1.1.6-.3.7-.7 1.1-1 .9-.3-.2-1.3.3-2.2 1-1.2 1-1.7 1-2.3.1-.4-.7-.3-.9.4-.5.6.3 1.3.2 1.6-.3.9-1.4-.8-2.1-2.4-1.1-.9.5-2 .4-2.9-.3-1.2-1-1.4-.9-.8.7.5 1.3.3 1.7-.7 1.3-.8-.3-1.7-.1-1.9.6-.2.7-.8.9-1.2.5-1.2-1.1 2.3-4.6 4.9-5 1.1-.2 2.4.1 2.8.7.5.6.8.6.8 0zm56.3-.8c-.7.2-2.1.2-3 0-1-.3-.4-.5 1.2-.5 1.7 0 2.4.2 1.8.5zm8.7.5c0 .4-1.1.8-2.5.8s-2.8 0-3.2.1c-.4 0-.9-.5-1.1-1.1-.3-.7.9-1 3.2-.8 2 .1 3.6.6 3.6 1zm48 1.2c0 .2-.7.7-1.6 1-.8.3-1.2.2-.9-.4.6-1 2.5-1.4 2.5-.6zm-34.6 5.5c.3.5-.1 1.1-.9 1.4-.9.4-1.2.1-.8-.9.6-1.6 1-1.7 1.7-.5zm11.9.8c-.5 1.2-6.4 3.4-7.2 2.7-.2-.2.4-1.2 1.3-2.3 1.9-2.1 6.6-2.4 5.9-.4zm-94.8.3c-.6 1 .9 1.5 3 1 .5-.1.7.2.2.6-1.3 1.3-5.6 1-6.2-.4-.2-.7-.1-1 .4-.7.5.3 1.2.1 1.6-.5.3-.5.8-1 1.1-1 .3 0 .2.4-.1 1zm75.2 2.5c0 .8-.4 1.5-.9 1.5-1 0-1.1-1.4-.1-2.3.9-1 1-.9 1 .8zm-75.7 2c.8 0 2.1.6 2.8 1.5.8.8 1.1.9.7.2-.9-1.7.1-1.5 2.5.5 1.1 1 3 2.1 4.3 2.4 1.2.4-.3.6-3.4.5-3.1-.2-6.4.1-7.5.5-1.8.7 4.9 1.3 12.9 1.1 1.8 0 2.5.3 2 1.1-.4.7.2.5 1.2-.3 1.5-1.2 1.7-1.2 1-.1-.6 1.1-.4 1.3.8.8 1.1-.4 1.4-.2 1 .9-.3.7 0 1.4.6 1.4s1.1-.5 1.1-1.1c0-.6.9-.9 2-.6 1.4.4 2 0 2.1-1.1 0-1 .3-1.2.5-.6.3.7 1.4.9 2.6.6 1.3-.3 1.9-.1 1.5.5-.3.5 0 1 .7 1 .8 0 1.2-.7.9-1.6-.4-1.4-.4-1.4.6-.1 1.2 1.7 1.3 1.7 16.8 2.1 6.8.2 10.9.7 10.6 1.3-.4.5.1.7 1.1.3 1.1-.4 1.5-.3 1 .4-.3.6-1.5.9-2.5.6-1.1-.3-1.9-.2-1.9.1 0 .4-2.4.8-5.3.8-2.8.1-8.1.2-11.6.3-9.1.2-7.1 1 3 1.2 6.4.1 8.6.5 8.6 1.5 0 .7-.7 1.6-1.5 1.9-1 .4-1.2 0-.8-1.2.6-1.6.5-1.5-1.3.1-1.1 1-2.1 1.3-2.5.7-.6-.9-3.7-.8-5.5.3-.4.3-3.1.6-5.9.7-4.5.2-4.9.4-3.4 1.5 1.6 1.2 1.6 1.3-.3 1.5-1.1.1-3.3.2-4.9.1-2 0-2.5.3-1.6.8.8.5 3 .7 5 .5 4.6-.5 7.1.8 5.1 2.7-.8.8-1.1.8-.7.1.7-1.2-1.8-1.2-3.1.1-.4.4-.1.6.7.4.8-.1 1.5.4 1.5 1.2 0 .8-.6 1.5-1.3 1.5-.7 0-1.7.6-2.1 1.4-.5.7-1.3 1.1-1.9.7-.6-.3-1.3-.2-1.6.3-.3.5.6 1.1 2 1.4 1.8.3 2.9-.1 3.7-1.4.7-1.1 2.3-1.9 3.7-1.9 2 0 2.2-.2 1-1-1.1-.7-.7-1 1.8-1 2 0 3.1.4 2.7 1-.4.6-1.1.8-1.6.5-.5-.3-.6.1-.3 1 .6 1.4.8 1.3 2-.4 1.4-1.9 5.4-1.9 5.4.1 0 .5-.8.5-1.8-.1-1.4-.7-1.9-.6-1.9.4 0 .7.6 1.1 1.4.8.7-.3 1.3.1 1.3.8.1.9.6.7 1.7-.6 1.3-1.6 1.5-1.7 1-.3-.5 1.3-.1 1.8 1.1 1.8 1 0 2.3.5 2.9 1.1.7.7 1.4.6 2.4-.4.9-.9 2.2-1.1 3.4-.7 1.7.7 1.5.9-1.5 1.7-2 .6-4 .6-4.6.1-.6-.4-2.2-.7-3.5-.4-1.3.2-2.9 0-3.4-.5-.7-.5-1.6 0-2.3 1.1-1 1.6-.9 1.8.7 1.5 1.1-.2 2.7.2 3.7.9 1.6 1.2 1.6 1.3 0 1.9-1.1.5-1.5.3-1-.5 1.2-1.9-7.7 0-9.2 2-1.2 1.6-1.3 1.6-1.4 0 0-1.1-.6-1.5-2-1.1-1.1.3-2.7 0-3.5-.7-.8-.6-1.9-.9-2.5-.5-.7.4-.9-.2-.6-1.8.4-2.2.1-2.4-3.2-2.3-2.1.1-4 .5-4.3 1-.4.4-1 .3-1.3-.3-.4-.6-.1-1.4.8-1.7 3.1-1.2-.3-5.7-6.1-8-6.9-2.7-10.2-4.8-11.3-7-.7-1.2-2.3-2.7-3.6-3.4-1.2-.7-2.5-1.9-2.8-2.7-.7-1.8 1.1-5.3 2.7-5.3.6 0 .1-.7-1.1-1.6-2.1-1.5-3.3-5.2-1.2-3.9.6.3 1.3-.1 1.6-1 .4-.9 1.1-1.2 1.8-.7.6.4 1.8.8 2.6.7zm70.4 1.7c.3 1.9 0 2.5-1 2.4-1.6-.2-1.7-1-.8-3.9.7-2.3 1.1-1.9 1.8 1.5zm-58.5.4c.2.2-.7.4-2.2.4-1.4 0-2.9-.5-3.2-1-.6-1 4.2-.4 5.4.6zM125 212c0 .5-.7.7-1.5.4-1.1-.5-1.3-.2-.8 1.2.4 1.2.3 1.5-.5 1-1.9-1.2-1.4-3.6.8-3.6 1.1 0 2 .4 2 1zm23 3.4c0 .3-.4.8-1 1.1-.5.3-1 .1-1-.4 0-.6.5-1.1 1-1.1.6 0 1 .2 1 .4zm-42 1.5c0 .6-.5 1.3-1.2 1.7-.7.4-.8.3-.4-.4.9-1.5-.6-1.6-2.1-.1-.7.7-1.2.6-1.6-.5-.5-1.2 0-1.6 2.3-1.6 1.7 0 3 .4 3 .9zm3 .1c0 .5-.4 1-1 1-.5 0-1-.5-1-1 0-.6.5-1 1-1 .6 0 1 .4 1 1zm15.2.1c-1.2.5-2.9.6-3.7.3-.8-.4-1.5-.1-1.5.4 0 .6 1 1.3 2.3 1.5 1.6.3 1.2.5-1.3.7l-3.5.3 3.5.7c3.4.7 3.3.7-1.5 1-2.7.1-6.7.3-8.7.6-2.1.2-3.8 0-3.8-.5 0-1.6 3.9-4.3 5.2-3.5 1 .6 1 .4-.1-.9-1.3-1.6-.8-1.7 7-1.6 5.8.1 7.7.4 6.1 1zm-50 4.9c-.4.3-.8 1.1-1 1.9-.3 1.2-.1 1.2 1.4 0 1-.8 1.5-.9 1.1-.2-.5.7.1 1.3 1.5 1.6 1.7.3 1.5.5-.9.6-2.1.1-3.6-.5-4.2-1.7-.6-.9-1.1-1.2-1.1-.6 0 .7-1 1.4-2.2 1.8-1.9.5-2.1.8-.8 1.6.9.6 1 1 .3 1-2.6 0-2.2-2 .9-4.1 1.7-1.3 2.6-2.5 2-2.7-.7-.2-1.2-.7-1.2-1.2 0-.4 1.1-.3 2.4.3 1.4.7 2.1 1.4 1.8 1.7zm70.8-1.9c0 .5-.2.9-.4.9s-1.2.3-2.2.7c-1.2.4-1.5.3-1-.5.4-.7.3-1.2-.3-1.2-.5 0-1.5.8-2 1.7-.7 1.2-1 1.4-1.1.4 0-1.1-.3-1.1-1.5-.1-1 .9-1.5.9-1.5.1 0-.6.5-1.2 1-1.2.6-.1 1.4-.2 1.9-.3.5 0 1.2-.4 1.6-.7.9-1 5.5-.8 5.5.2zm-80 1.7c0 .4-.9.8-2 .9-1.1.1-2-.2-2-.5 0-.4.9-.8 2-.9 1.1-.1 2 .2 2 .5zm14 8.2c0 .5-.4 1-1 1-.5 0-1-.5-1-1 0-.6.5-1 1-1 .6 0 1 .4 1 1zm34.7 7.6c-.3.3-1.2.4-1.9.1-.8-.3-.5-.6.6-.6 1.1-.1 1.7.2 1.3.5z"/><path d="M137.5 78.9c-.3.5-.2 1.2.3 1.5.5.3.9-.1.9-.9 0-1.7-.3-1.9-1.2-.6zM87.6 81.8c-.3.5.1.9.9.9s1.5-.4 1.5-.9c0-.4-.4-.8-.9-.8-.6 0-1.2.4-1.5.8zM107 92.2c0 .4.7.8 1.5.8s1.5-.4 1.5-.8c0-.5-.7-.9-1.5-.9s-1.5.4-1.5.9zM160 111c-2.3.7-2.3.8-.3.9 1.2.1 2.5-.4 2.8-.9.3-.6.5-1 .3-.9-.2.1-1.4.5-2.8.9zM76.4 118.1c-.3.6-.2 1.5.4 2.1.6.6 1.2.6 1.6-.1.4-.6.2-1.1-.4-1.1-.6 0-.8-.5-.5-1 .3-.6.4-1 .1-1-.3 0-.8.5-1.2 1.1zM105.5 124c-.3.5 0 1 .7 1.1.7 0 2.3.2 3.6.3 2.5.3 3-.9.7-1.8-.8-.3-1.5 0-1.5.6 0 .7-.4.7-1.4-.1-1-.8-1.6-.9-2.1-.1zM174.5 128c-.3.5-.5 1-.3 1.1 3.3.8 3.8.7 2.7-.7-1.4-1.7-1.6-1.7-2.4-.4zM189.3 136.3c-.3.4-.2 1.1.1 1.4.3.4.6.1.6-.5s1.1-.9 2.5-.6c1.4.2 2.5.1 2.5-.4 0-1.1-5-1-5.7.1zM196 135.9c0 .6.4 1.3 1 1.6.6.3.7-.1.4-.9-.7-1.8-1.4-2.1-1.4-.7zM197 143.1c0 .5.5.7 1 .4.6-.3 1-.8 1-1.1 0-.2-.4-.4-1-.4-.5 0-1 .5-1 1.1zM213.7 141.8c-2.2 2.5-2.1 2.9.7 3.4 1.6.3 2.7 0 3.1-1 .3-.9 0-1.2-.9-.9-1 .4-1.4 0-1.1-1.4.5-2.4.2-2.4-1.8-.1zM138.3 146.7c-2.6.9-1.2 2.1 2.7 2.5 3.8.3 5.5-1.1 3-2.7-.5-.3-1-.1-1 .4 0 .6-.5 1.1-1.1 1.1-.5 0-.8-.4-.5-.8.5-.9-1.1-1.1-3.1-.5zM76.5 150c-.3.6.1.7.9.4 1.8-.7 2.1-1.4.7-1.4-.6 0-1.3.4-1.6 1zM80.6 150.1c.5.9 3.1.6 4-.4.4-.4-.4-.6-1.9-.5-1.4.1-2.4.5-2.1.9zM74.6 153.2c.3.4 1.1.5 1.9.1 2.1-.7 1.9-1.2-.4-1-1.1 0-1.8.5-1.5.9zM149.6 153.8c-.3.5.1.9.9.9s1.2-.4.9-.9c-.3-.4-.7-.8-.9-.8-.2 0-.6.4-.9.8zM153 156c0 .5.5 1 1 1 .6 0 1-.5 1-1 0-.6-.4-1-1-1-.5 0-1 .4-1 1zM157 156c-1.3.8-1.2 1 .3 1 .9 0 1.7-.5 1.7-1 0-1.2-.1-1.2-2 0zM161.6 159.3c.3 1 .9 1.5 1.2 1.2.3-.3 0-1.1-.7-1.8-1-.9-1.1-.8-.5.6zM164.5 159.1c-.4.5-.4 1.3-.1 1.6.3.4.6 0 .6-.8 0-1.1.2-1.1 1 .1.6.9 1 1 1 .3 0-1.7-1.7-2.5-2.5-1.2zM141.5 164.1c-.2.3.8.6 2.3.6 1.5 0 3.3.2 4.1.4.7.2 1.5-.1 1.8-.8.3-.8-.9-1.1-3.7-1-2.3.1-4.3.5-4.5.8zM169.6 164.7c-.4.4-2.8 1-5.4 1.4l-4.7.6 4.6.2c3.1.1 5.1-.4 5.9-1.4 1.2-1.5 1-2.1-.4-.8zM112.5 168c-.3.5-.1 1 .4 1 .6 0 1.1-.5 1.1-1 0-.6-.2-1-.4-1-.3 0-.8.4-1.1 1zM147.5 170.9c-.3.5 0 1.3.6 1.7.7.4.9.3.5-.4-.3-.5 0-1.3.6-1.5.9-.4 1-.6.1-.6-.6-.1-1.4.3-1.8.8zM143.6 172.7c-.6 1.4-.5 1.5.5.6.7-.7 1-1.5.7-1.8-.3-.3-.9.2-1.2 1.2zM133.6 176.4c.6 1.5.4 1.7-.6 1.1-.9-.6-1.1-.4-.5.4.5.9 1 1 1.8.2s.7-1.4-.2-2.4c-1-1-1.1-.8-.5.7zM115.8 183.3c-.7.8-2 1.2-3 .9-1-.2-1.8.1-1.8.7s.7.8 1.7.4 1.4-.2 1 .4c-.3.5 0 1 .8 1s1.1-.5.8-1c-.4-.6.1-.8 1.1-.4 1.3.5 1.7.3 1.3-.7-.3-.8-.1-1.7.6-2 .9-.3.9-.5 0-.5-.7-.1-1.8.5-2.5 1.2zM107.8 184.7c.7.3 1.6.2 1.9-.1.4-.3-.2-.6-1.3-.5-1.1 0-1.4.3-.6.6zM116 188c-1.2.7-1 .9.7.7 1.2 0 1.9-.5 1.7-.9-.6-1-.6-1-2.4.2zM105 230.5c0 .7 3 1.3 3.4.7.3-.4-.4-.9-1.5-.9-1-.1-1.9 0-1.9.2zM113 218.1c0 .4 1.1.6 2.5.6 1.3 0 2.2-.3 2-.8-.6-.9-4.5-.8-4.5.2zM99.6 29.9c-.4.5-.2 1.2.3 1.5.5.4 1.2.2 1.5-.3.4-.5.2-1.2-.3-1.5-.5-.4-1.2-.2-1.5.3zM160 33c-1.3.9-1.2 1.2.5 2.2 4.3 2.5 9.5 1.3 6.5-1.5-1-.9-1.4-.9-1.7 0-.3.7-.9 1.3-1.4 1.3-.6 0-.7-.6-.3-1.3.5-.7 0-.6-1.1.3-1.7 1.4-1.8 1.3-1.2-.3.7-2 .7-2-1.3-.7zM169 36c0 .5.5 1 1.1 1 .5 0 .7-.5.4-1-.3-.6-.8-1-1.1-1-.2 0-.4.4-.4 1zM154.6 40.2c.3.4 1.4.6 2.4.5 3.1-.5 3.2-1.3.1-1.2-1.6 0-2.7.3-2.5.7zM161 40c0 .5.5 1.1 1 1.1 2 .3 2.5.4 3.8 1.3 1.1.7 1.1.4.1-1.3-1-1.4-1.5-1.7-2.1-.8-.6.9-.8.9-.8-.1 0-.6-.4-1.2-1-1.2-.5 0-1 .4-1 1zM94.6 41.5c.4.8 1.1 1.5 1.6 1.5.6 0 .5-.6-.2-1.5-.7-.8-1.4-1.5-1.6-1.5-.2 0-.1.7.2 1.5zM151.5 40.9c.3.5.1 1.2-.5 1.6-.5.3-1 0-1-.7 0-.9-.3-.9-.8-.2-.4.6-1.4 1.4-2.2 1.7-1 .5-.9.6.5.4 3.3-.3 4.8 1.2 3.3 3.1-1.1 1.5-1.1 1.5.2.6.8-.6 2.3-1 3.2-.9 1 .2 1.5-.2 1.1-1-.2-.8-1.2-1.1-2-.8-1.3.5-1.3.2-.4-1.4.8-1.7.7-2.2-.5-2.7-.8-.3-1.2-.2-.9.3zM91.5 42c.3.5.8 1 1.1 1 .2 0 .4-.5.4-1 0-.6-.5-1-1.1-1-.5 0-.7.4-.4 1zM135.7 41.8c1.9 1.2-.2 3.6-2.6 2.9-1.2-.3-2.1-.2-2.2.1 0 .4-.2 2-.4 3.7-.3 2.4-.2 2.7.6 1.2.6-.9 1.4-1.5 1.9-1.2.5.3 1.5-.4 2.3-1.5.7-1.1 1.7-1.7 2.1-1.3.4.4.4 0 .1-.9-.6-1.4 0-1.6 3.6-1.4l4.3.3-2.8-1.4c-2.2-1.2-3-1.2-3.6-.3-.5.9-.9.9-1.4.1-.4-.6-1.3-1.1-1.9-1.1-.9 0-.9.2 0 .8zM127.9 44.4c-.4.5-3.8 1.3-6.1 1.5-.5.1-.8.6-.8 1.2 0 .5.4.8.9.5.5-.4 1.1-.1 1.3.6.5 1.4 5.6 1.7 6.1.3.5-1.3-.7-4.8-1.4-4.1zm.5 2.5c.3.5-.5 1.1-1.8 1.3-1.7.4-2.3.1-1.9-.9.6-1.5 2.9-1.8 3.7-.4zM116 46.2c-1.2.8-1.2.9.2.4 1-.3 2.2.2 2.7 1.2.6.9 1.1 1.2 1.1.6 0-2-2.4-3.4-4-2.2z"/><path d="M145.4 46.2c-.3.4.5.5 1.7.3 3-.6 3.6-1.4.9-1.2-1.2.1-2.4.5-2.6.9zM117.3 50.9c0 1.1.5 1.8.9 1.5.4-.3.5-1.1.1-1.9-.7-2.1-1.2-1.9-1 .4zM121 50c0 .5.5 1 1.1 1 .5 0 .7-.5.4-1-.3-.6-.8-1-1.1-1-.2 0-.4.4-.4 1zM152.7 53.1c.7.7 1.5 1 1.8.7.3-.3-.2-.9-1.2-1.2-1.4-.6-1.5-.5-.6.5zM113.6 53.7c-.3.4-.6 1.5-.6 2.5 0 1.1-.4 1.7-.9 1.4-.4-.3-1.6.2-2.4 1.2-1.5 1.7-1.5 1.8.8 1.8 1.3 0 2.3-.5 2.2-1-.1-.6.3-1 1-1.1.6 0 1.5-.4 2-.9s.3-.6-.4-.2c-.9.5-1.3 0-1.3-1.3 0-1.4.5-1.9 1.5-1.5.8.4 1.5.4 1.5.1 0-.8-2.8-1.6-3.4-1zM137.6 54.5c-.9 2.6-.7 3.2.5 1.2.6-1 .9-2.1.6-2.3-.2-.3-.7.2-1.1 1.1zM145.2 54.7c-1 1-1.7 1.1-2.7.3-.9-.7-1.6-.6-2.6.7-.9 1.1-1 1.4-.1.9.6-.4 1.2-.2 1.2.4 0 .8.6.8 2 0 1.1-.6 2-.7 2-.3 0 .4.5 0 1.1-1 1.4-2.3.8-2.9-.9-1zM183.5 54.9c-.3.5-.2 1.2.3 1.5.5.3.9-.1.9-.9 0-1.7-.3-1.9-1.2-.6zM179 56.2c0 .4.4.8.9.8.6 0 1.2-.4 1.5-.8.3-.5-.1-.9-.9-.9s-1.5.4-1.5.9zM178.6 58.9c-.4.5.1.8.9.7 2.1-.3 3.1-1.6 1.2-1.6-.9 0-1.8.4-2.1.9zM135.4 61.8c.4.6 2.1 1.9 3.8 2.8 1.6.9 2.7 1.1 2.4.5-.9-1.4 0-1.4 2.5 0 1.1.5 1.7 1.4 1.4 1.9-.3.4.3.7 1.2.5 1-.1 2.2 0 2.8.3 1.5.9 4.5.9 3.9 0-.3-.4 0-.8.5-.8 1 0 1.5 1.4 1.2 3.2 0 .5.4.8.9.8.6 0 1-.5 1-1 0-.6 1.1-1.5 2.5-2 3.1-1.2 3.3-2.8.3-2.4-1.3.1-2.3.3-2.3.5 0 .1-2.2.3-5 .4-5 .2-8-.9-6.9-2.6.3-.5-1.4-.9-3.8-.9s-5-.6-5.7-1.3c-1.1-1-1.3-.9-.7.1zm23.6 4.6c0 .2-.8 1-1.7 1.7-1.6 1.3-1.7 1.2-.4-.4 1.3-1.6 2.1-2.1 2.1-1.3zM168.8 61.7c.7.3 1.6.2 1.9-.1.4-.3-.2-.6-1.3-.5-1.1 0-1.4.3-.6.6zM132.7 63.1c.7.7 1.5 1 1.8.7.3-.3-.2-.9-1.2-1.2-1.4-.6-1.5-.5-.6.5zM73.5 64c.3.5 1.2.7 2 .3 2.1-.7 1.9-1.3-.6-1.3-1.1 0-1.8.4-1.4 1zM128 63.9c.8.5 1.7.8 2.1.5.4-.2 1 0 1.4.6.3.5 1.2 1 1.8 1 1.7-.1-2.4-2.4-4.8-2.7-1.6-.2-1.7-.1-.5.6zM57 66.5c0 .8 2.9 1.2 3.9.5.9-.5.4-.8-1.3-.8-1.4 0-2.6.2-2.6.3zM161.1 68.1c-1.3 1.1-2 2.3-1.6 2.7.4.4 1 .1 1.2-.6.3-.6.8-1 1.3-.7.4.2 1.5-.4 2.5-1.5 2.5-2.7-.1-2.7-3.4.1zM143 69.9c0 .6.4 1.3 1 1.6.6.3.7-.1.4-.9-.7-1.8-1.4-2.1-1.4-.7zM169.6 71.3c.3 1 .9 1.5 1.2 1.2.3-.3 0-1.1-.7-1.8-1-.9-1.1-.8-.5.6zM117.6 71.8c-.3.5.1.9.9.9s1.2-.4.9-.9c-.3-.4-.7-.8-.9-.8-.2 0-.6.4-.9.8zM161 79.4c0 .2.7.7 1.6 1 .8.3 1.2.2.9-.4-.6-1-2.5-1.4-2.5-.6zM165.4 82.3c0 1.9.4 3.3.9 3 .4-.2.7.1.7.7s.5.8 1.1.4c.8-.4.7-.9-.2-1.5-1-.6-1-.9-.2-.9.7 0 1.7-.8 2.2-1.8.8-1.6.6-1.8-1.2-1.7-1.2.1-2.5-.2-2.8-.8-.4-.5-.6.7-.5 2.6zm3.1-.3c.3.5.1 1-.4 1-.6 0-1.1-.5-1.1-1 0-.6.2-1 .4-1 .3 0 .8.4 1.1 1zM63.8 88.7c.6.2 1.8.2 2.5 0 .6-.3.1-.5-1.3-.5-1.4 0-1.9.2-1.2.5zM29.5 112c-.3.5-.1 1 .4 1 .6 0 1.1-.5 1.1-1 0-.6-.2-1-.4-1-.3 0-.8.4-1.1 1zM32.8 112.7c.6.2 1.8.2 2.5 0 .6-.3.1-.5-1.3-.5-1.4 0-1.9.2-1.2.5zM37.5 115c.3.5.8 1 1.1 1 .2 0 .4-.5.4-1 0-.6-.5-1-1.1-1-.5 0-.7.4-.4 1zM47.4 119.7c-.7 1.1-1.5 1.4-2.5.8-2.4-1.6-3.8-1.4-3.1.3.3 1 .7 1.2 1 .4.2-.8 1.1-.7 3 .5 1.5.9 2.4 1.3 2 .8-.4-.4-.3-1.4.4-2.2.6-.7.9-1.5.7-1.8-.3-.2-.9.3-1.5 1.2zM217 127.9c0 .5.7 1.2 1.6 1.5 1.4.5 1.5.4.4-.9-1.4-1.7-2-1.9-2-.6zM49.4 130.4c.1.8.5 1.8.8 2.2.4.3.5-.1.4-1-.1-.8-.5-1.8-.8-2.2-.4-.3-.5.1-.4 1zM45 138c0 .5.5 1 1 1 .6 0 1-.5 1-1 0-.6-.4-1-1-1-.5 0-1 .4-1 1zM47.6 143.9c-.4.6-1.4.7-2.4.4-.9-.3-1.4-.3-1.1.1.7.7 3.3 1.3 8.8 2.1 1.9.2 3.1.2 2.7-.2-.3-.3-.1-1.2.6-2 .9-1.2.6-1.3-1.7-.9-1.5.3-3 .8-3.3 1-.3.3-1.1.1-1.8-.5-.8-.6-1.4-.7-1.8 0zM43.7 151.1c.7.7 1.5 1 1.8.7.3-.3-.2-.9-1.2-1.2-1.4-.6-1.5-.5-.6.5zM42.8 153.7c.7.3 1.6.2 1.9-.1.4-.3-.2-.6-1.3-.5-1.1 0-1.4.3-.6.6zM54 157.4c0 .2.7.6 1.5 1 .8.3 1.5.1 1.5-.4 0-.6-.7-1-1.5-1s-1.5.2-1.5.4zM58.6 157.9c-.4.5.1.8.9.7 2.1-.3 3.1-1.6 1.2-1.6-.9 0-1.8.4-2.1.9zM36.4 161.8c.4.3 1.4.7 2.2.8.9.1 1.3 0 1-.4-.4-.3-1.4-.7-2.2-.8-.9-.1-1.3 0-1 .4zM57.3 167.2c-.2 1.8 0 2 .7.8 1.2-1.8 1.3-3 .2-3-.4 0-.9 1-.9 2.2zM63 176.3c0 .9 1.3 1.4 3.5 1.5 2.3.1 3.3-.2 2.9-.9-.3-.6-1.2-.8-2-.5-.7.3-1.6.1-1.9-.4-.9-1.5-2.5-1.2-2.5.3zM57.2 176.5c.3.3 1.6.8 2.8 1 1.2.2 2 .1 1.6-.2-.4-.4-1.6-.8-2.8-1-1.2-.2-1.9-.1-1.6.2zM69 180c0 1.2.8 1.2 3.5 0 1.8-.8 1.7-.9-.7-.9-1.6-.1-2.8.3-2.8.9zM77 180.1c0 .5.5.7 1 .4.6-.3 1-.8 1-1.1 0-.2-.4-.4-1-.4-.5 0-1 .5-1 1.1zM55.6 187.3c.3 1 .9 1.5 1.2 1.2.3-.3 0-1.1-.7-1.8-1-.9-1.1-.8-.5.6zM55 195c-1.2.7-1 .9.7.7 1.2 0 1.9-.5 1.7-.9-.6-1-.6-1-2.4.2zM47 202.4c0 .2.7.7 1.6 1 .8.3 1.2.2.9-.4-.6-1-2.5-1.4-2.5-.6zM53.6 205.8c-.3.4.4.9 1.5.9 2.3.2 2.5-.3.4-1-.8-.4-1.6-.3-1.9.1zM44.3 224.4c-.3.5-.1.6.5.2.6-.3 1.3-.2 1.7.3.6 1.1 3.5.4 3.5-.8 0-1.1-5-.8-5.7.3zM51 224c0 .4.7 1 1.5 1.4.8.3 1.5 0 1.5-.7 0-.8.4-.6 1 .3.8 1.3 1 1.3 1-.1 0-1.1-.9-1.7-2.5-1.7-1.4 0-2.5.4-2.5.8zM56.3 234.6c-.7 1.5-.6 2.1.3 2.1.7 0 1.2-.5 1.1-1.1-.1-.6 1.2-1.1 3.1-1 4.2.1 4.2-1.3-.1-1.8-2.7-.3-3.6.1-4.4 1.8zM47 234.1c0 .5.5.7 1 .4.6-.3 1-.8 1-1.1 0-.2-.4-.4-1-.4-.5 0-1 .5-1 1.1zM50 234c0 .5.7.7 1.5.4.8-.4 1.5-.8 1.5-1 0-.2-.7-.4-1.5-.4s-1.5.4-1.5 1zM53.1 235.2c-1.4 2.3-1.4 2.3.8.4 2.2-2 2.5-2.6 1.3-2.6-.4 0-1.3 1-2.1 2.2z"/></svg>